<?xml version="1.0" encoding="UTF-8" standalone="no"?>
<!-- Created with Inkscape (http://www.inkscape.org/) -->

<svg
   width="203.90575mm"
   height="235.45007mm"
   viewBox="0 0 203.90575 235.45007"
   version="1.1"
   id="svg5"
   sodipodi:docname="hex-sticker.svg"
   inkscape:version="1.1.1 (eb90963e84, 2021-10-02)"
   xmlns:inkscape="http://www.inkscape.org/namespaces/inkscape"
   xmlns:sodipodi="http://sodipodi.sourceforge.net/DTD/sodipodi-0.dtd"
   xmlns="http://www.w3.org/2000/svg"
   xmlns:svg="http://www.w3.org/2000/svg">
  <sodipodi:namedview
     id="namedview7"
     pagecolor="#ffffff"
     bordercolor="#666666"
     borderopacity="1.0"
     inkscape:pageshadow="2"
     inkscape:pageopacity="0.0"
     inkscape:pagecheckerboard="0"
     inkscape:document-units="mm"
     showgrid="false"
     inkscape:zoom="0.64"
     inkscape:cx="336.71875"
     inkscape:cy="357.03125"
     inkscape:window-width="1920"
     inkscape:window-height="1136"
     inkscape:window-x="0"
     inkscape:window-y="0"
     inkscape:window-maximized="1"
     inkscape:current-layer="layer1"
     fit-margin-top="0"
     fit-margin-left="0"
     fit-margin-right="0"
     fit-margin-bottom="0" />
  <defs
     id="defs2">
    <linearGradient
       id="linearGradient13923"
       inkscape:swatch="gradient">
      <stop
         style="stop-color:#3c69e4;stop-opacity:1;"
         offset="0"
         id="stop13919" />
      <stop
         style="stop-color:#3c69e4;stop-opacity:0;"
         offset="1"
         id="stop13921" />
    </linearGradient>
    <linearGradient
       id="linearGradient13859"
       inkscape:swatch="solid">
      <stop
         style="stop-color:#634cd4;stop-opacity:1;"
         offset="0"
         id="stop13857" />
    </linearGradient>
    <linearGradient
       id="linearGradient13317"
       inkscape:swatch="solid">
      <stop
         style="stop-color:#8249d7;stop-opacity:1;"
         offset="0"
         id="stop13315" />
    </linearGradient>
    <rect
       x="177.29034"
       y="509.90413"
       width="532.52968"
       height="148.74923"
       id="rect5613" />
    <clipPath
       clipPathUnits="userSpaceOnUse"
       id="clipPath33140">
      <path
         d="m 8.22,8.22 h 490.3 v 346.3 H 8.22 Z"
         id="path33138" />
    </clipPath>
    <style
       type="text/css"
       id="style33611"><![CDATA[
    .svglite line, .svglite polyline, .svglite polygon, .svglite path, .svglite rect, .svglite circle {
      fill: none;
      stroke: #000000;
      stroke-linecap: round;
      stroke-linejoin: round;
      stroke-miterlimit: 10.00;
    }
  ]]></style>
    <clipPath
       id="cpMC4wMHw1MDQuMDB8MC4wMHwzNjAuMDA=">
      <rect
         x="0.00"
         y="0.00"
         width="504.00"
         height="360.00"
         id="rect33617" />
    </clipPath>
    <clipPath
       id="cpOC4yMnw0OTguNTJ8NS40OHwzNTEuNzg=">
      <rect
         x="8.22"
         y="5.48"
         width="490.30"
         height="346.30"
         id="rect33626" />
    </clipPath>
    <style
       type="text/css"
       id="style34198"><![CDATA[
    .svglite line, .svglite polyline, .svglite polygon, .svglite path, .svglite rect, .svglite circle {
      fill: none;
      stroke: #000000;
      stroke-linecap: round;
      stroke-linejoin: round;
      stroke-miterlimit: 10.00;
    }
  ]]></style>
    <clipPath
       id="cpMC4wMHw1MDQuMDB8MC4wMHwzNjAuMDA=-6">
      <rect
         x="0.00"
         y="0.00"
         width="504.00"
         height="360.00"
         id="rect34204" />
    </clipPath>
    <clipPath
       id="cpOC4yMnw0OTguNTJ8NS40OHwzNTEuNzg=-4">
      <rect
         x="8.22"
         y="5.48"
         width="490.30"
         height="346.30"
         id="rect34213" />
    </clipPath>
    <style
       type="text/css"
       id="style34627"><![CDATA[
    .svglite line, .svglite polyline, .svglite polygon, .svglite path, .svglite rect, .svglite circle {
      fill: none;
      stroke: #000000;
      stroke-linecap: round;
      stroke-linejoin: round;
      stroke-miterlimit: 10.00;
    }
  ]]></style>
    <clipPath
       id="cpMC4wMHw1MDQuMDB8MC4wMHwzNjAuMDA=-8">
      <rect
         x="0.00"
         y="0.00"
         width="504.00"
         height="360.00"
         id="rect34633" />
    </clipPath>
    <clipPath
       id="cpOC4yMnw0OTguNTJ8NS40OHwzNTEuNzg=-0">
      <rect
         x="8.22"
         y="5.48"
         width="490.30"
         height="346.30"
         id="rect34642" />
    </clipPath>
    <clipPath
       clipPathUnits="userSpaceOnUse"
       id="clipPath35085">
      <path
         d="m 8.22,8.22 h 490.3 v 346.3 H 8.22 Z"
         id="path35083" />
    </clipPath>
    <clipPath
       clipPathUnits="userSpaceOnUse"
       id="clipPath35516">
      <path
         d="m 8.22,8.22 h 490.3 v 346.3 H 8.22 Z"
         id="path35514" />
    </clipPath>
    <clipPath
       clipPathUnits="userSpaceOnUse"
       id="clipPath37855">
      <path
         d="m 8.22,8.22 h 490.3 v 346.3 H 8.22 Z"
         id="path37853" />
    </clipPath>
    <clipPath
       clipPathUnits="userSpaceOnUse"
       id="clipPath38232">
      <path
         d="m 8.22,8.22 h 490.3 v 346.3 H 8.22 Z"
         id="path38230" />
    </clipPath>
    <clipPath
       clipPathUnits="userSpaceOnUse"
       id="clipPath989">
      <path
         d="m 8.22,8.22 h 490.3 v 346.3 H 8.22 Z"
         id="path987" />
    </clipPath>
    <clipPath
       clipPathUnits="userSpaceOnUse"
       id="clipPath1366">
      <path
         d="m 8.22,8.22 h 490.3 v 346.3 H 8.22 Z"
         id="path1364" />
    </clipPath>
  </defs>
  <g
     inkscape:label="Hexagon"
     inkscape:groupmode="layer"
     id="layer1"
     transform="translate(-3.0471194,-2.6808826)">
    <path
       sodipodi:type="star"
       style="mix-blend-mode:normal;fill:#c8c8c8;fill-opacity:1;fill-rule:evenodd;stroke:#5976e0;stroke-width:37.7951;stroke-miterlimit:4;stroke-dasharray:none;stroke-opacity:1;opacity:1"
       id="path414"
       inkscape:flatsided="true"
       sodipodi:sides="6"
       sodipodi:cx="-20.430073"
       sodipodi:cy="204.62395"
       sodipodi:r1="404.20627"
       sodipodi:r2="350.05289"
       sodipodi:arg1="0.52359878"
       sodipodi:arg2="1.0471976"
       inkscape:rounded="0"
       inkscape:randomized="0"
       d="M 329.62282,406.72708 -20.430075,608.83022 -370.48297,406.72708 l 0,-404.2062686 L -20.430071,-199.58232 329.62282,2.5208145 Z"
       transform="matrix(0.27633209,0,0,0.27633209,110.64548,63.86176)" />
    <path
       d="m 82.547674,152.39036 c -0.843618,0 -1.66777,0.0898 -2.463835,0.25412 v 1.9352 c -1.070166,0.26236 -2.069559,0.68325 -2.983549,1.25103 l -1.347409,-1.36832 c -0.690674,0.4648 -1.32194,1.01015 -1.905622,1.60289 -0.583713,0.59275 -1.120705,1.23381 -1.578394,1.9352 l 1.347409,1.36832 c -0.559105,0.92819 -0.973553,1.94305 -1.231917,3.02986 h -1.905621 c -0.161782,0.80843 -0.250233,1.64537 -0.250233,2.50208 0,0.85672 0.08845,1.69365 0.250233,2.50208 h 1.905621 c 0.258355,1.08677 0.672812,2.10167 1.231917,3.02986 l -1.347409,1.36832 c 0.457689,0.70139 0.994681,1.34245 1.578394,1.9352 0.583682,0.59274 1.214948,1.13809 1.905622,1.60289 l 1.347409,-1.36832 c 0.91399,0.56778 1.913353,0.98866 2.983549,1.25103 v 1.9352 c 0.796065,0.16429 1.620217,0.25412 2.463835,0.25412 0.843585,0 1.667743,-0.0898 2.463837,-0.25412 v -1.9352 c 1.070161,-0.26236 2.069562,-0.68325 2.983548,-1.25103 l 1.347407,1.36832 c 0.69068,-0.4648 1.321915,-1.01015 1.905622,-1.60289 0.583684,-0.59275 1.120703,-1.23381 1.578394,-1.9352 l -1.347406,-1.36832 c 0.5591,-0.92819 0.973548,-1.94305 1.231913,-3.02986 h 1.905622 c 0.161787,-0.80843 0.250229,-1.64536 0.250229,-2.50208 0,-0.85671 -0.08846,-1.69365 -0.250229,-2.50208 h -1.905622 c -0.258365,-1.08677 -0.672813,-2.10167 -1.231913,-3.02986 l 1.347406,-1.36832 c -0.457691,-0.70139 -0.99471,-1.34245 -1.578394,-1.9352 -0.583707,-0.59274 -1.214942,-1.13809 -1.905622,-1.60289 l -1.347407,1.36832 c -0.913986,-0.56778 -1.913387,-0.98866 -2.983548,-1.25103 v -1.9352 c -0.796094,-0.1643 -1.620252,-0.25412 -2.463837,-0.25412 z m 0,6.25519 c 3.40009,0 6.159588,2.80233 6.159588,6.25519 0,3.45287 -2.759498,6.25519 -6.159588,6.25519 -3.400092,0 -6.159586,-2.80232 -6.159586,-6.25519 0,-3.45286 2.759494,-6.25519 6.159586,-6.25519 z"
       fill="#ffffff"
       stroke="#2c2c2c"
       stroke-dashoffset="162"
       stroke-linecap="round"
       stroke-linejoin="round"
       stroke-width="2.34603"
       id="path21026" />
    <path
       d="m 113.54645,158.19598 c -0.84362,0 -1.66778,0.0898 -2.46384,0.25412 v 1.9352 c -1.07017,0.26236 -2.06956,0.68325 -2.98355,1.25103 l -1.34741,-1.36832 c -0.69067,0.4648 -1.32194,1.01015 -1.90562,1.60289 -0.58371,0.59275 -1.1207,1.23381 -1.57839,1.9352 l 1.34741,1.36832 c -0.55911,0.92819 -0.97356,1.94305 -1.23192,3.02986 h -1.90562 c -0.16178,0.80843 -0.25024,1.64537 -0.25024,2.50208 0,0.85672 0.0885,1.69365 0.25024,2.50208 h 1.90562 c 0.25835,1.08677 0.67281,2.10167 1.23192,3.02986 l -1.34741,1.36832 c 0.45769,0.70139 0.99468,1.34245 1.57839,1.9352 0.58368,0.59274 1.21495,1.13809 1.90562,1.60289 l 1.34741,-1.36832 c 0.91399,0.56778 1.91335,0.98866 2.98355,1.25103 v 1.9352 c 0.79606,0.16429 1.62022,0.25412 2.46384,0.25412 0.84358,0 1.66774,-0.0898 2.46383,-0.25412 v -1.9352 c 1.07017,-0.26236 2.06957,-0.68325 2.98355,-1.25103 l 1.34741,1.36832 c 0.69068,-0.4648 1.32192,-1.01015 1.90562,-1.60289 0.58369,-0.59275 1.1207,-1.23381 1.5784,-1.9352 l -1.34741,-1.36832 c 0.5591,-0.92819 0.97355,-1.94305 1.23191,-3.02986 h 1.90562 c 0.16179,-0.80843 0.25023,-1.64536 0.25023,-2.50208 0,-0.85671 -0.0885,-1.69365 -0.25023,-2.50208 h -1.90562 c -0.25836,-1.08677 -0.67281,-2.10167 -1.23191,-3.02986 l 1.34741,-1.36832 c -0.4577,-0.70139 -0.99471,-1.34245 -1.5784,-1.9352 -0.58371,-0.59274 -1.21494,-1.13809 -1.90562,-1.60289 l -1.34741,1.36832 c -0.91398,-0.56778 -1.91338,-0.98866 -2.98355,-1.25103 v -1.9352 c -0.79609,-0.1643 -1.62025,-0.25412 -2.46383,-0.25412 z m 0,6.25519 c 3.40009,0 6.15959,2.80233 6.15959,6.25519 0,3.45287 -2.7595,6.25519 -6.15959,6.25519 -3.4001,0 -6.15959,-2.80232 -6.15959,-6.25519 0,-3.45286 2.75949,-6.25519 6.15959,-6.25519 z"
       fill="#ffffff"
       stroke="#2c2c2c"
       stroke-dashoffset="162"
       stroke-linecap="round"
       stroke-linejoin="round"
       stroke-width="2.34603"
       id="path21026-7" />
  </g>
  <g
     inkscape:groupmode="layer"
     id="layer2"
     inkscape:label="Titel">
    <text
       xml:space="preserve"
       transform="matrix(0.26458333,0,0,0.26458333,-4.2525448,11.799966)"
       id="text5611"
       style="font-style:normal;font-weight:normal;font-size:40px;line-height:1.25;font-family:sans-serif;white-space:pre;shape-inside:url(#rect5613);fill:#000000;fill-opacity:1;stroke:none"><tspan
         x="177.29102"
         y="603.43889"
         id="tspan17133"><tspan
           style="font-weight:bold;font-size:106.667px;font-family:'Courier New';-inkscape-font-specification:'Courier New, Bold'"
           id="tspan17131">t    ls</tspan></tspan></text>
    <g
       id="g1348"
       inkscape:label="main_plot"
       transform="matrix(0.25556892,0,0,-0.25556892,37.910482,139.40466)">
      <g
         id="g1350" />
      <g
         id="g1352" />
      <g
         id="g1354" />
      <g
         id="g1356" />
      <g
         id="g1358" />
      <g
         id="g1360">
        <g
           id="g1362"
           clip-path="url(#clipPath1366)">
          <path
             d="M 30.51,23.96 H 476.23"
             style="fill:none;stroke:#cd2626;stroke-width:2.56;stroke-linecap:butt;stroke-linejoin:round;stroke-miterlimit:10;stroke-dasharray:none;stroke-opacity:1"
             id="path1368" />
          <path
             d="m 458.85,19.3 17.38,4.66 -17.38,4.66 z"
             style="fill:#cd2626;fill-opacity:1;fill-rule:nonzero;stroke:#cd2626;stroke-width:2.56;stroke-linecap:butt;stroke-linejoin:round;stroke-miterlimit:10;stroke-dasharray:none;stroke-opacity:1"
             id="path1370" />
          <path
             d="M 30.51,23.96 V 338.78"
             style="fill:none;stroke:#cd2626;stroke-width:2.56;stroke-linecap:butt;stroke-linejoin:round;stroke-miterlimit:10;stroke-dasharray:none;stroke-opacity:1"
             id="path1372" />
          <path
             d="m 35.16,321.39 -4.65,17.39 -4.66,-17.39 z"
             style="fill:#cd2626;fill-opacity:1;fill-rule:nonzero;stroke:#cd2626;stroke-width:2.56;stroke-linecap:butt;stroke-linejoin:round;stroke-miterlimit:10;stroke-dasharray:none;stroke-opacity:1"
             id="path1374" />
          <path
             d="M 30.51,23.96 263.98,338.78"
             style="fill:none;stroke:#cd2626;stroke-width:2.56;stroke-linecap:butt;stroke-linejoin:round;stroke-miterlimit:10;stroke-dasharray:none;stroke-opacity:1"
             id="path1376" />
          <path
             d="m 257.37,322.04 6.61,16.74 -14.1,-11.19 z"
             style="fill:#cd2626;fill-opacity:1;fill-rule:nonzero;stroke:#cd2626;stroke-width:2.56;stroke-linecap:butt;stroke-linejoin:round;stroke-miterlimit:10;stroke-dasharray:none;stroke-opacity:1"
             id="path1378" />
          <path
             d="M 30.51,138.44 157.86,310.16"
             style="fill:none;stroke:#cd2626;stroke-width:2.13;stroke-linecap:butt;stroke-linejoin:round;stroke-miterlimit:10;stroke-dasharray:8.54, 8.54;stroke-dashoffset:0;stroke-opacity:1"
             id="path1380" />
          <path
             d="m 30.51,252.92 42.45,57.24"
             style="fill:none;stroke:#cd2626;stroke-width:2.13;stroke-linecap:butt;stroke-linejoin:round;stroke-miterlimit:10;stroke-dasharray:8.54, 8.54;stroke-dashoffset:0;stroke-opacity:1"
             id="path1382" />
          <path
             d="m 115.41,23.96 212.25,286.2"
             style="fill:none;stroke:#cd2626;stroke-width:2.13;stroke-linecap:butt;stroke-linejoin:round;stroke-miterlimit:10;stroke-dasharray:8.54, 8.54;stroke-dashoffset:0;stroke-opacity:1"
             id="path1384" />
          <path
             d="m 200.31,23.96 212.25,286.2"
             style="fill:none;stroke:#cd2626;stroke-width:2.13;stroke-linecap:butt;stroke-linejoin:round;stroke-miterlimit:10;stroke-dasharray:8.54, 8.54;stroke-dashoffset:0;stroke-opacity:1"
             id="path1386" />
          <path
             d="m 285.21,23.96 169.8,228.96"
             style="fill:none;stroke:#cd2626;stroke-width:2.13;stroke-linecap:butt;stroke-linejoin:round;stroke-miterlimit:10;stroke-dasharray:8.54, 8.54;stroke-dashoffset:0;stroke-opacity:1"
             id="path1388" />
          <path
             d="m 370.11,23.96 84.9,114.48"
             style="fill:none;stroke:#cd2626;stroke-width:2.13;stroke-linecap:butt;stroke-linejoin:round;stroke-miterlimit:10;stroke-dasharray:8.54, 8.54;stroke-dashoffset:0;stroke-opacity:1"
             id="path1390" />
          <path
             d="m 30.51,138.44 h 424.5"
             style="fill:none;stroke:#1874cd;stroke-width:2.13;stroke-linecap:butt;stroke-linejoin:round;stroke-miterlimit:10;stroke-dasharray:8.54, 8.54;stroke-dashoffset:0;stroke-opacity:1"
             id="path1392" />
          <path
             d="m 30.51,252.92 h 424.5"
             style="fill:none;stroke:#1874cd;stroke-width:2.13;stroke-linecap:butt;stroke-linejoin:round;stroke-miterlimit:10;stroke-dasharray:8.54, 8.54;stroke-dashoffset:0;stroke-opacity:1"
             id="path1394" />
          <path
             d="m 115.41,23.96 v 286.2"
             style="fill:none;stroke:#458b00;stroke-width:2.13;stroke-linecap:butt;stroke-linejoin:round;stroke-miterlimit:10;stroke-dasharray:8.54, 8.54;stroke-dashoffset:0;stroke-opacity:1"
             id="path1396" />
          <path
             d="m 200.31,23.96 v 286.2"
             style="fill:none;stroke:#458b00;stroke-width:2.13;stroke-linecap:butt;stroke-linejoin:round;stroke-miterlimit:10;stroke-dasharray:8.54, 8.54;stroke-dashoffset:0;stroke-opacity:1"
             id="path1398" />
          <path
             d="m 285.21,23.96 v 286.2"
             style="fill:none;stroke:#458b00;stroke-width:2.13;stroke-linecap:butt;stroke-linejoin:round;stroke-miterlimit:10;stroke-dasharray:8.54, 8.54;stroke-dashoffset:0;stroke-opacity:1"
             id="path1400" />
          <path
             d="m 370.11,23.96 v 286.2"
             style="fill:none;stroke:#458b00;stroke-width:2.13;stroke-linecap:butt;stroke-linejoin:round;stroke-miterlimit:10;stroke-dasharray:8.54, 8.54;stroke-dashoffset:0;stroke-opacity:1"
             id="path1402" />
          <path
             d="m 455.01,23.96 v 286.2"
             style="fill:none;stroke:#458b00;stroke-width:2.13;stroke-linecap:butt;stroke-linejoin:round;stroke-miterlimit:10;stroke-dasharray:8.54, 8.54;stroke-dashoffset:0;stroke-opacity:1"
             id="path1404" />
          <path
             d="m 30.51,138.44 84.9,114.48"
             style="fill:none;stroke:#000000;stroke-width:4.27;stroke-linecap:square;stroke-linejoin:round;stroke-miterlimit:10;stroke-dasharray:none;stroke-opacity:1"
             id="path1406" />
          <path
             d="M 30.51,138.44 H 62.34"
             style="fill:none;stroke:#000000;stroke-width:4.27;stroke-linecap:square;stroke-linejoin:round;stroke-miterlimit:10;stroke-dasharray:none;stroke-opacity:1"
             id="path1408" />
          <path
             d="m 62.34,138.44 31.84,42.93"
             style="fill:none;stroke:#000000;stroke-width:4.27;stroke-linecap:square;stroke-linejoin:round;stroke-miterlimit:10;stroke-dasharray:none;stroke-opacity:1"
             id="path1410" />
          <path
             d="m 94.18,181.37 h 40.33"
             style="fill:none;stroke:#000000;stroke-width:4.27;stroke-linecap:square;stroke-linejoin:round;stroke-miterlimit:10;stroke-dasharray:none;stroke-opacity:1"
             id="path1412" />
          <path
             d="m 115.41,252.92 h 21.22"
             style="fill:none;stroke:#000000;stroke-width:4.27;stroke-linecap:square;stroke-linejoin:round;stroke-miterlimit:10;stroke-dasharray:none;stroke-opacity:1"
             id="path1414" />
          <path
             d="m 136.63,252.92 21.23,-57.24"
             style="fill:none;stroke:#000000;stroke-width:4.27;stroke-linecap:square;stroke-linejoin:round;stroke-miterlimit:10;stroke-dasharray:none;stroke-opacity:1"
             id="path1416" />
          <path
             d="m 134.51,181.37 4.24,-11.45"
             style="fill:none;stroke:#000000;stroke-width:4.27;stroke-linecap:square;stroke-linejoin:round;stroke-miterlimit:10;stroke-dasharray:none;stroke-opacity:1"
             id="path1418" />
          <path
             d="m 138.75,169.92 19.11,25.76"
             style="fill:none;stroke:#000000;stroke-width:4.27;stroke-linecap:square;stroke-linejoin:round;stroke-miterlimit:10;stroke-dasharray:none;stroke-opacity:1"
             id="path1420" />
          <path
             d="M 200.31,52.58 V 224.3"
             style="fill:none;stroke:#000000;stroke-width:4.27;stroke-linecap:square;stroke-linejoin:round;stroke-miterlimit:10;stroke-dasharray:none;stroke-opacity:1"
             id="path1422" />
          <path
             d="m 200.31,52.58 h 31.83"
             style="fill:none;stroke:#000000;stroke-width:4.27;stroke-linecap:square;stroke-linejoin:round;stroke-miterlimit:10;stroke-dasharray:none;stroke-opacity:1"
             id="path1424" />
          <path
             d="m 200.31,224.3 h 53.06"
             style="fill:none;stroke:#000000;stroke-width:4.27;stroke-linecap:square;stroke-linejoin:round;stroke-miterlimit:10;stroke-dasharray:none;stroke-opacity:1"
             id="path1426" />
          <path
             d="m 232.14,52.58 v 85.86"
             style="fill:none;stroke:#000000;stroke-width:4.27;stroke-linecap:square;stroke-linejoin:round;stroke-miterlimit:10;stroke-dasharray:none;stroke-opacity:1"
             id="path1428" />
          <path
             d="m 232.14,138.44 h 21.23"
             style="fill:none;stroke:#000000;stroke-width:4.27;stroke-linecap:square;stroke-linejoin:round;stroke-miterlimit:10;stroke-dasharray:none;stroke-opacity:1"
             id="path1430" />
          <path
             d="m 433.78,138.44 v -22.9"
             style="fill:none;stroke:#000000;stroke-width:4.27;stroke-linecap:square;stroke-linejoin:round;stroke-miterlimit:10;stroke-dasharray:none;stroke-opacity:1"
             id="path1432" />
          <path
             d="m 433.78,23.96 v 22.9"
             style="fill:none;stroke:#000000;stroke-width:4.27;stroke-linecap:square;stroke-linejoin:round;stroke-miterlimit:10;stroke-dasharray:none;stroke-opacity:1"
             id="path1434" />
          <path
             d="m 253.37,138.44 h 0.33 0.34 l 0.33,0.01 h 0.34 l 0.33,0.01 0.33,0.01 0.34,0.01 0.33,0.01 0.33,0.02 0.34,0.01 0.33,0.02 0.33,0.02 0.34,0.02 0.33,0.03 0.33,0.02 0.34,0.03 0.33,0.03 0.33,0.03 0.33,0.03 0.33,0.03 0.33,0.03 0.34,0.04 0.33,0.04 0.33,0.04 0.33,0.04 0.33,0.04 0.33,0.05 0.33,0.05 0.32,0.04 0.33,0.05 0.33,0.05 0.33,0.06 0.33,0.05 0.32,0.06 0.33,0.06 0.32,0.06 0.33,0.06 0.32,0.06 0.33,0.07 0.32,0.06 0.33,0.07 0.32,0.07 0.32,0.07 0.32,0.08 0.32,0.07 0.32,0.08 0.32,0.08 0.32,0.08 0.32,0.08 0.32,0.08 0.32,0.08 0.31,0.09 0.32,0.09 0.31,0.09 0.32,0.09 0.31,0.09 0.32,0.09 0.31,0.1 0.31,0.1 0.31,0.1 0.31,0.1 0.31,0.1 0.31,0.1 0.31,0.11 0.3,0.1 0.31,0.11 0.3,0.11 0.31,0.11 0.3,0.12 0.31,0.11 0.3,0.12 0.3,0.12 0.3,0.11 0.3,0.13 0.29,0.12 0.3,0.12 0.3,0.13 0.29,0.12 0.3,0.13 0.29,0.13 0.29,0.13 0.29,0.13 0.29,0.14 0.29,0.13 0.29,0.14 0.29,0.14 0.28,0.14 0.29,0.14 0.28,0.14 0.28,0.15 0.28,0.14 0.28,0.15 0.28,0.15 0.28,0.15 0.28,0.15 0.27,0.16 0.28,0.15 0.27,0.16 0.27,0.15 0.27,0.16 0.27,0.16 0.27,0.16 0.27,0.16 0.26,0.17 0.27,0.16 0.26,0.17 0.26,0.17 0.26,0.17 0.26,0.17 0.26,0.17 0.26,0.17 0.25,0.18 0.26,0.17 0.25,0.18 0.25,0.18 0.25,0.18 0.25,0.18 0.24,0.18 0.25,0.19 0.24,0.18 0.24,0.19 0.25,0.18 0.24,0.19 0.23,0.19 0.24,0.19 0.24,0.19 0.23,0.2 0.23,0.19 0.23,0.2 0.23,0.19 0.23,0.2 0.22,0.2 0.23,0.2 0.22,0.2 0.22,0.2 0.22,0.21 0.22,0.2 0.22,0.21 0.21,0.21 0.22,0.2 0.21,0.21 0.21,0.21 0.21,0.21 0.2,0.22 0.21,0.21 0.2,0.21 0.2,0.22 0.2,0.22 0.2,0.21 0.2,0.22 0.19,0.22 0.2,0.22 0.19,0.22 0.19,0.23 0.19,0.22 0.18,0.22 0.19,0.23 0.18,0.22 0.18,0.23 0.18,0.23 0.18,0.23 0.17,0.23 0.18,0.23 0.17,0.23 0.17,0.23 0.17,0.24 0.16,0.23 0.17,0.24 0.16,0.23 0.16,0.24 0.16,0.24 0.16,0.23 0.16,0.24 0.15,0.24 0.15,0.24 0.15,0.25 0.15,0.24 0.15,0.24 0.14,0.24 0.14,0.25 0.14,0.24 0.14,0.25 0.14,0.25 0.13,0.24 0.14,0.25 0.13,0.25 0.13,0.25 0.12,0.25 0.13,0.25 0.12,0.25 0.12,0.25 0.12,0.26 0.12,0.25 0.12,0.25 0.11,0.26 0.11,0.25 0.11,0.26 0.11,0.25 0.1,0.26 0.11,0.26 0.1,0.25 0.1,0.26 0.1,0.26 0.09,0.26 0.09,0.26 0.1,0.26 0.08,0.26 0.09,0.26 0.09,0.26 0.08,0.26 0.08,0.27 0.08,0.26 0.08,0.26 0.07,0.26 0.08,0.27 0.07,0.26 0.07,0.27 0.06,0.26 0.07,0.27 0.06,0.26 0.06,0.27 0.06,0.26 0.06,0.27 0.05,0.27 0.05,0.26 0.05,0.27 0.05,0.27 0.05,0.27 0.04,0.26 0.04,0.27 0.04,0.27 0.04,0.27 0.04,0.27 0.03,0.27 0.03,0.27 0.03,0.27 0.03,0.26 0.02,0.27 0.03,0.27 0.02,0.27 0.02,0.27 0.01,0.27 0.02,0.27 0.01,0.27 0.01,0.27 0.01,0.27 0.01,0.27 v 0.27 0.27 0.28 0.27 0.27 l -0.01,0.27 -0.01,0.27 -0.01,0.27 -0.01,0.27 -0.02,0.27 -0.01,0.27 -0.02,0.27 -0.02,0.27 -0.03,0.27 -0.02,0.26 -0.03,0.27 -0.03,0.27 -0.03,0.27 -0.03,0.27 -0.04,0.27 -0.04,0.27 -0.04,0.27 -0.04,0.27 -0.04,0.26 -0.05,0.27 -0.05,0.27 -0.05,0.27 -0.05,0.26 -0.05,0.27 -0.06,0.27 -0.06,0.26 -0.06,0.27 -0.06,0.26 -0.07,0.27 -0.06,0.26 -0.07,0.27 -0.07,0.26 -0.08,0.27 -0.07,0.26 -0.08,0.26 -0.08,0.26 -0.08,0.27 -0.08,0.26 -0.09,0.26 -0.09,0.26 -0.08,0.26 -0.1,0.26 -0.09,0.26 -0.09,0.26 -0.1,0.26 -0.1,0.26 -0.1,0.25 -0.11,0.26 -0.1,0.26 -0.11,0.25 -0.11,0.26 -0.11,0.25 -0.11,0.26 -0.12,0.25 -0.12,0.25 -0.12,0.26 -0.12,0.25 -0.12,0.25 -0.13,0.25 -0.12,0.25 -0.13,0.25 -0.13,0.25 -0.14,0.25 -0.13,0.24 -0.14,0.25 -0.14,0.25 -0.14,0.24 -0.14,0.24 -0.14,0.25 -0.15,0.24 -0.15,0.24 -0.15,0.25 -0.15,0.24 -0.15,0.24 -0.16,0.24 -0.16,0.23 -0.16,0.24 -0.16,0.24 -0.16,0.23 -0.17,0.24 -0.16,0.23 -0.17,0.24 -0.17,0.23 -0.17,0.23 -0.18,0.23 -0.17,0.23 -0.18,0.23 -0.18,0.23 -0.18,0.22 -0.18,0.23 -0.19,0.23 -0.18,0.22 -0.19,0.22 -0.19,0.23 -0.19,0.22 -0.2,0.22 -0.19,0.22 -0.2,0.22 -0.2,0.21 -0.2,0.22 -0.2,0.22 -0.2,0.21 -0.21,0.21 -0.2,0.22 -0.21,0.21 -0.21,0.21 -0.21,0.21 -0.22,0.2 -0.21,0.21 -0.22,0.21 -0.22,0.2 -0.22,0.21 -0.22,0.2 -0.22,0.2 -0.23,0.2 -0.22,0.2 -0.23,0.2 -0.23,0.19 -0.23,0.2 -0.23,0.19 -0.23,0.2 -0.24,0.19 -0.24,0.19 -0.23,0.19 -0.24,0.19 -0.25,0.18 -0.24,0.19 -0.24,0.18 -0.25,0.19 -0.24,0.18 -0.25,0.18 -0.25,0.18 -0.25,0.18 -0.25,0.18 -0.26,0.17 -0.25,0.18 -0.26,0.17 -0.26,0.17 -0.26,0.17 -0.26,0.17 -0.26,0.17 -0.26,0.17 -0.27,0.16 -0.26,0.17 -0.27,0.16 -0.27,0.16 -0.27,0.16 -0.27,0.16 -0.27,0.15 -0.27,0.16 -0.28,0.15 -0.27,0.16 -0.28,0.15 -0.28,0.15 -0.28,0.15 -0.28,0.14 -0.28,0.15 -0.28,0.15 -0.28,0.14 -0.29,0.14 -0.28,0.14 -0.29,0.14 -0.29,0.14 -0.29,0.13 -0.29,0.13 -0.29,0.14 -0.29,0.13 -0.29,0.13 -0.3,0.13 -0.29,0.12 -0.3,0.13 -0.3,0.12 -0.29,0.12 -0.3,0.13 -0.3,0.11 -0.3,0.12 -0.3,0.12 -0.31,0.11 -0.3,0.12 -0.31,0.11 -0.3,0.11 -0.31,0.11 -0.3,0.1 -0.31,0.11 -0.31,0.1 -0.31,0.1 -0.31,0.1 -0.31,0.1 -0.31,0.1 -0.31,0.1 -0.32,0.09 -0.31,0.09 -0.32,0.09 -0.31,0.09 -0.32,0.09 -0.31,0.09 -0.32,0.08 -0.32,0.08 -0.32,0.08 -0.32,0.08 -0.32,0.08 -0.32,0.08 -0.32,0.07 -0.32,0.08 -0.32,0.07 -0.32,0.07 -0.33,0.07 -0.32,0.06 -0.33,0.07 -0.32,0.06 -0.33,0.06 -0.32,0.06 -0.33,0.06 -0.32,0.06 -0.33,0.05 -0.33,0.05 -0.33,0.06 -0.33,0.05 -0.32,0.04 -0.33,0.05 -0.33,0.05 -0.33,0.04 -0.33,0.04 -0.33,0.04 -0.33,0.04 -0.34,0.04 -0.33,0.03 -0.33,0.03 -0.33,0.03 -0.33,0.03 -0.33,0.03 -0.34,0.03 -0.33,0.02 -0.33,0.03 -0.34,0.02 -0.33,0.02 -0.33,0.01 -0.34,0.02 -0.33,0.02 -0.33,0.01 -0.34,0.01 -0.33,0.01 -0.33,0.01 h -0.34 l -0.33,0.01 h -0.34 -0.33"
             style="fill:none;stroke:#000000;stroke-width:4.27;stroke-linecap:square;stroke-linejoin:round;stroke-miterlimit:10;stroke-dasharray:none;stroke-opacity:1"
             id="path1436" />
          <path
             d="m 225.78,155.61 h 21.22 0.24 0.24 l 0.24,0.01 h 0.24 0.24 l 0.25,0.01 0.24,0.01 h 0.24 l 0.24,0.01 0.24,0.01 0.24,0.01 0.24,0.02 0.24,0.01 0.24,0.01 0.23,0.02 0.24,0.01 0.24,0.02 0.24,0.02 0.24,0.02 0.24,0.02 0.24,0.02 0.24,0.02 0.24,0.02 0.23,0.03 0.24,0.02 0.24,0.03 0.24,0.02 0.23,0.03 0.24,0.03 0.24,0.03 0.23,0.03 0.24,0.03 0.23,0.04 0.24,0.03 0.23,0.03 0.24,0.04 0.23,0.04 0.24,0.04 0.23,0.03 0.23,0.04 0.23,0.05 0.24,0.04 0.23,0.04 0.23,0.04 0.23,0.05 0.23,0.04 0.23,0.05 0.23,0.05 0.23,0.05 0.23,0.05 0.23,0.05 0.23,0.05 0.23,0.05 0.22,0.06 0.23,0.05 0.22,0.06 0.23,0.05 0.23,0.06 0.22,0.06 0.22,0.06 0.23,0.06 0.22,0.06 0.22,0.06 0.22,0.06 0.22,0.07 0.22,0.06 0.22,0.07 0.22,0.07 0.22,0.06 0.22,0.07 0.22,0.07 0.21,0.07 0.22,0.07 0.21,0.08 0.22,0.07 0.21,0.07 0.22,0.08 0.21,0.08 0.21,0.07 0.21,0.08 0.21,0.08 0.21,0.08 0.21,0.08 0.21,0.08 0.21,0.08 0.2,0.09 0.21,0.08 0.2,0.08 0.21,0.09 0.2,0.09 0.2,0.08 0.2,0.09 0.21,0.09 0.2,0.09 0.19,0.09 0.2,0.1 0.2,0.09 0.2,0.09 0.19,0.1 0.2,0.09 0.19,0.1 0.19,0.09 0.2,0.1 0.19,0.1 0.19,0.1 0.19,0.1 0.19,0.1 0.18,0.1 0.19,0.1 0.19,0.11 0.18,0.1 0.18,0.1 0.19,0.11 0.18,0.11 0.18,0.1 0.18,0.11 0.18,0.11 0.18,0.11 0.17,0.11 0.18,0.11 0.17,0.11 0.18,0.11 0.17,0.12 0.17,0.11 0.17,0.11 0.17,0.12 0.17,0.12 0.16,0.11 0.17,0.12 0.17,0.12 0.16,0.12 0.16,0.12 0.16,0.12 0.16,0.12 0.16,0.12 0.16,0.12 0.16,0.12 0.15,0.13 0.16,0.12 0.15,0.13 0.16,0.12 0.15,0.13 0.15,0.12 0.15,0.13 0.14,0.13 0.15,0.13 0.14,0.13 0.15,0.13 0.14,0.13 0.14,0.13 0.14,0.13 0.14,0.13 0.14,0.14 0.14,0.13 0.13,0.13 0.14,0.14 0.13,0.13 0.13,0.14 0.13,0.14 0.13,0.13 0.13,0.14 0.13,0.14 0.12,0.14 0.12,0.13 0.13,0.14 0.12,0.14 0.12,0.14 0.12,0.15 0.12,0.14 0.11,0.14 0.12,0.14 0.11,0.14 0.11,0.15 0.11,0.14 0.11,0.15 0.11,0.14 0.11,0.15 0.1,0.14 0.11,0.15 0.1,0.15 0.1,0.14 0.1,0.15 0.1,0.15 0.09,0.15 0.1,0.15 0.09,0.14 0.1,0.15 0.09,0.15 0.09,0.15 0.09,0.16 0.09,0.15 0.08,0.15 0.09,0.15 0.08,0.15 0.08,0.15 0.08,0.16 0.08,0.15 0.08,0.15 0.07,0.16 0.08,0.15 0.07,0.16 0.07,0.15 0.07,0.16 0.07,0.15 0.07,0.16 0.06,0.15 0.07,0.16 0.06,0.16 0.06,0.15 0.06,0.16 0.06,0.16 0.06,0.15 0.05,0.16 0.06,0.16 0.05,0.16 0.05,0.16 0.05,0.16 0.05,0.16 0.05,0.15 0.04,0.16 0.04,0.16 0.05,0.16 0.04,0.16 0.04,0.16 0.03,0.16 0.04,0.16 0.03,0.16 0.04,0.16 0.03,0.16 0.03,0.17 0.03,0.16 0.03,0.16 0.02,0.16 0.03,0.16 0.02,0.16 0.02,0.16 0.02,0.16 0.02,0.17 0.01,0.16 0.02,0.16 0.01,0.16 0.02,0.16 0.01,0.17 v 0.16 l 0.01,0.16 0.01,0.16 v 0.16 l 0.01,0.17 v 0.16 0.16 0.16 l -0.01,0.17 v 0.16 l -0.01,0.16 -0.01,0.16 v 0.16 l -0.01,0.17 -0.02,0.16 -0.01,0.16 -0.02,0.16 -0.01,0.16 -0.02,0.16 -0.02,0.17 -0.02,0.16 -0.02,0.16 -0.03,0.16 -0.02,0.16 -0.03,0.16 -0.03,0.16 -0.03,0.17 -0.03,0.16 -0.04,0.16 -0.03,0.16 -0.04,0.16 -0.03,0.16 -0.04,0.16 -0.04,0.16 -0.05,0.16 -0.04,0.16 -0.04,0.16 -0.05,0.15 -0.05,0.16 -0.05,0.16 -0.05,0.16 -0.05,0.16 -0.06,0.16 -0.05,0.15 -0.06,0.16 -0.06,0.16 -0.06,0.16 -0.06,0.15 -0.06,0.16 -0.07,0.16 -0.06,0.15 -0.07,0.16 -0.07,0.15 -0.07,0.16 -0.07,0.15 -0.07,0.16 -0.08,0.15 -0.07,0.16 -0.08,0.15 -0.08,0.15 -0.08,0.16 -0.08,0.15 -0.08,0.15 -0.09,0.15 -0.08,0.15 -0.09,0.15 -0.09,0.16 -0.09,0.15 -0.09,0.15 -0.1,0.15 -0.09,0.14 -0.1,0.15 -0.09,0.15 -0.1,0.15 -0.1,0.15 -0.1,0.14 -0.1,0.15 -0.11,0.15 -0.1,0.14 -0.11,0.15 -0.11,0.14 -0.11,0.15 -0.11,0.14 -0.11,0.14 -0.11,0.15 -0.12,0.14 -0.11,0.14 -0.12,0.14 -0.12,0.15 -0.12,0.14 -0.12,0.14 -0.13,0.14 -0.12,0.13 -0.12,0.14 -0.13,0.14 -0.13,0.14 -0.13,0.13 -0.13,0.14 -0.13,0.14 -0.13,0.13 -0.14,0.14 -0.13,0.13 -0.14,0.13 -0.14,0.14 -0.14,0.13 -0.14,0.13 -0.14,0.13 -0.14,0.13 -0.15,0.13 -0.14,0.13 -0.15,0.13 -0.14,0.13 -0.15,0.13 -0.15,0.12 -0.15,0.13 -0.16,0.12 -0.15,0.13 -0.16,0.12 -0.15,0.13 -0.16,0.12 -0.16,0.12 -0.16,0.12 -0.16,0.12 -0.16,0.12 -0.16,0.12 -0.16,0.12 -0.17,0.12 -0.17,0.12 -0.16,0.11 -0.17,0.12 -0.17,0.11 -0.17,0.12 -0.17,0.11 -0.17,0.12 -0.18,0.11 -0.17,0.11 -0.18,0.11 -0.17,0.11 -0.18,0.11 -0.18,0.11 -0.18,0.11 -0.18,0.1 -0.18,0.11 -0.19,0.11 -0.18,0.1 -0.18,0.1 -0.19,0.11 -0.19,0.1 -0.18,0.1 -0.19,0.1 -0.19,0.1 -0.19,0.1 -0.19,0.1 -0.2,0.1 -0.19,0.09 -0.19,0.1 -0.2,0.09 -0.19,0.1 -0.2,0.09 -0.2,0.09 -0.2,0.1 -0.19,0.09 -0.2,0.09 -0.21,0.09 -0.2,0.08 -0.2,0.09 -0.2,0.09 -0.21,0.08 -0.2,0.09 -0.21,0.08 -0.2,0.09 -0.21,0.08 -0.21,0.08 -0.21,0.08 -0.21,0.08 -0.21,0.08 -0.21,0.08 -0.21,0.07 -0.21,0.08 -0.22,0.08 -0.21,0.07 -0.22,0.07 -0.21,0.08 -0.22,0.07 -0.21,0.07 -0.22,0.07 -0.22,0.07 -0.22,0.06 -0.22,0.07 -0.22,0.07 -0.22,0.06 -0.22,0.07 -0.22,0.06 -0.22,0.06 -0.22,0.06 -0.23,0.06 -0.22,0.06 -0.22,0.06 -0.23,0.06 -0.23,0.05 -0.22,0.06 -0.23,0.05 -0.22,0.06 -0.23,0.05 -0.23,0.05 -0.23,0.05 -0.23,0.05 -0.23,0.05 -0.23,0.05 -0.23,0.05 -0.23,0.04 -0.23,0.05 -0.23,0.04 -0.23,0.04 -0.24,0.04 -0.23,0.05 -0.23,0.04 -0.23,0.03 -0.24,0.04 -0.23,0.04 -0.24,0.04 -0.23,0.03 -0.24,0.03 -0.23,0.04 -0.24,0.03 -0.23,0.03 -0.24,0.03 -0.24,0.03 -0.23,0.03 -0.24,0.02 -0.24,0.03 -0.24,0.02 -0.23,0.03 -0.24,0.02 -0.24,0.02 -0.24,0.02 -0.24,0.02 -0.24,0.02 -25.54,-34.18 v -17.17"
             style="fill:none;stroke:#000000;stroke-width:4.27;stroke-linecap:square;stroke-linejoin:round;stroke-miterlimit:10;stroke-dasharray:none;stroke-opacity:1"
             id="path1438" />
          <path
             d="m 433.78,138.44 h -0.66 -0.67 l -0.67,-0.01 -0.67,-0.01 -0.67,-0.01 -0.66,-0.01 -0.67,-0.02 -0.67,-0.01 -0.67,-0.02 -0.66,-0.02 -0.67,-0.03 -0.67,-0.02 -0.66,-0.03 -0.67,-0.03 -0.66,-0.04 -0.67,-0.03 -0.66,-0.04 -0.67,-0.04 -0.66,-0.04 -0.66,-0.04 -0.67,-0.05 -0.66,-0.05 -0.66,-0.05 -0.66,-0.05 -0.66,-0.06 -0.66,-0.06 -0.66,-0.06 -0.66,-0.06 -0.65,-0.06 -0.66,-0.07 -0.66,-0.07 -0.65,-0.07 -0.66,-0.07 -0.65,-0.08 -0.65,-0.07 -0.65,-0.08 -0.65,-0.09 -0.65,-0.08 -0.65,-0.09 -0.65,-0.09 -0.65,-0.09 -0.64,-0.09 -0.65,-0.09 -0.64,-0.1 -0.64,-0.1 -0.64,-0.1 -0.64,-0.11 -0.64,-0.1 -0.64,-0.11 -0.63,-0.11 -0.64,-0.12 -0.63,-0.11 -0.63,-0.12 -0.64,-0.12 -0.62,-0.12 -0.63,-0.12 -0.63,-0.13 -0.62,-0.12 -0.63,-0.13 -0.62,-0.14 -0.62,-0.13 -0.62,-0.14 -0.61,-0.13 -0.62,-0.14 -0.61,-0.15 -0.62,-0.14 -0.61,-0.15 -0.6,-0.15 -0.61,-0.15 -0.61,-0.15 -0.6,-0.15 -0.6,-0.16 -0.6,-0.16 -0.6,-0.16 -0.6,-0.16 -0.59,-0.17 -0.59,-0.17 -0.59,-0.16 -0.59,-0.18 -0.59,-0.17 -0.58,-0.17 -0.58,-0.18 -0.58,-0.18 -0.58,-0.18 -0.58,-0.18 -0.57,-0.19 -0.57,-0.18 -0.57,-0.19 -0.57,-0.19 -0.56,-0.2 -0.57,-0.19 -0.56,-0.2 -0.55,-0.19 -0.56,-0.2 -0.55,-0.21 -0.55,-0.2 -0.55,-0.21 -0.55,-0.2 -0.54,-0.21 -0.54,-0.21 -0.54,-0.22 -0.54,-0.21 -0.53,-0.22 -0.53,-0.22 -0.53,-0.22 -0.53,-0.22 -0.52,-0.22 -0.52,-0.23 -0.52,-0.23 -0.52,-0.23 -0.51,-0.23 -0.51,-0.23 -0.51,-0.23 -0.5,-0.24 -0.5,-0.24 -0.5,-0.24 -0.5,-0.24 -0.49,-0.24 -0.49,-0.25 -0.49,-0.24 -0.49,-0.25 -0.48,-0.25 -0.48,-0.25 -0.47,-0.25 -0.48,-0.26 -0.47,-0.26 -0.46,-0.25 -0.47,-0.26 -29.56,-39.82 v -0.36 l 0.01,-0.36 0.01,-0.36 0.02,-0.36 0.02,-0.36 0.03,-0.36 0.03,-0.36 0.03,-0.36 0.04,-0.36 0.04,-0.36 0.05,-0.36 0.05,-0.36 0.05,-0.36 0.06,-0.36 0.06,-0.36 0.07,-0.36 0.07,-0.35 0.08,-0.36 0.08,-0.36 0.08,-0.36 0.09,-0.35 0.09,-0.36 0.1,-0.36 0.1,-0.35 0.1,-0.36 0.11,-0.36 0.11,-0.35 0.12,-0.36 0.12,-0.35 0.13,-0.35 0.13,-0.36 0.13,-0.35 0.14,-0.35 0.14,-0.36 0.15,-0.35 0.15,-0.35 0.15,-0.35 0.16,-0.35 0.16,-0.35 0.17,-0.35 0.17,-0.35 0.17,-0.34 0.18,-0.35 0.19,-0.35 0.18,-0.34 0.19,-0.35 0.2,-0.34 0.2,-0.35 0.2,-0.34 0.21,-0.34 0.21,-0.35 0.21,-0.34 0.22,-0.34 0.22,-0.34 0.23,-0.34 0.23,-0.33 0.24,-0.34 0.23,-0.34 0.25,-0.33 0.24,-0.34 0.25,-0.33 0.26,-0.34 0.26,-0.33 0.26,-0.33 0.26,-0.33 0.27,-0.33 0.28,-0.33 0.27,-0.33 0.29,-0.32 0.28,-0.33 0.29,-0.32 0.29,-0.33 0.3,-0.32 0.3,-0.32 0.3,-0.32 0.31,-0.32 0.31,-0.32 0.32,-0.32 0.32,-0.32 0.32,-0.31 0.32,-0.32 0.33,-0.31 0.34,-0.31 0.33,-0.32 0.35,-0.3 0.34,-0.31 0.35,-0.31 0.35,-0.31 0.35,-0.3 0.36,-0.31 0.37,-0.3 0.36,-0.3 0.37,-0.3 0.37,-0.3 0.38,-0.3 0.38,-0.3 0.38,-0.29 0.39,-0.29 0.39,-0.3 0.39,-0.29 0.4,-0.29 0.4,-0.29 0.4,-0.28 0.41,-0.29 0.41,-0.28 0.41,-0.29 0.42,-0.28 0.42,-0.28 0.42,-0.28 0.43,-0.28 0.43,-0.27 0.43,-0.28 0.44,-0.27 0.44,-0.27 0.44,-0.27 0.45,-0.27 0.45,-0.27 0.45,-0.26 0.45,-0.27 0.46,-0.26 0.46,-0.26 0.47,-0.26 0.46,-0.25 0.47,-0.26 0.48,-0.26 0.47,-0.25 0.48,-0.25 0.48,-0.25 0.49,-0.25 0.49,-0.24 0.49,-0.25 0.49,-0.24 0.5,-0.24 0.5,-0.24 0.5,-0.24 0.5,-0.24 0.51,-0.23 0.51,-0.23 0.51,-0.23 0.52,-0.23 0.52,-0.23 0.52,-0.23 0.52,-0.22 0.53,-0.22 0.53,-0.22 0.53,-0.22 0.53,-0.22 0.54,-0.21 0.54,-0.22 0.54,-0.21 0.54,-0.21 0.55,-0.2 0.55,-0.21 0.55,-0.2 0.55,-0.21 0.56,-0.2 0.55,-0.19 0.56,-0.2 0.57,-0.19 0.56,-0.2 0.57,-0.19 0.57,-0.19 0.57,-0.18 0.57,-0.19 0.58,-0.18 0.58,-0.18 0.58,-0.18 0.58,-0.18 0.58,-0.17 0.59,-0.17 0.59,-0.18 0.59,-0.16 0.59,-0.17 0.59,-0.17 0.6,-0.16 0.6,-0.16 0.6,-0.16 0.6,-0.16 0.6,-0.15 0.61,-0.15 0.61,-0.15 0.6,-0.15 0.61,-0.15 0.62,-0.14 0.61,-0.15 0.62,-0.14 0.61,-0.13 0.62,-0.14 0.62,-0.13 0.62,-0.14 0.63,-0.13 0.62,-0.12 0.63,-0.13 0.63,-0.12 0.62,-0.12 0.64,-0.12 0.63,-0.12 0.63,-0.11 0.64,-0.12 0.63,-0.11 0.64,-0.11 0.64,-0.1 0.64,-0.11 0.64,-0.1 0.64,-0.1 0.64,-0.1 0.65,-0.09 0.64,-0.09 0.65,-0.09 0.65,-0.09 0.65,-0.09 0.65,-0.08 0.65,-0.09 0.65,-0.08 0.65,-0.07 0.65,-0.08 0.66,-0.07 0.65,-0.07 0.66,-0.07 0.66,-0.07 0.65,-0.06 0.66,-0.06 0.66,-0.06 0.66,-0.06 0.66,-0.06 0.66,-0.05 0.66,-0.05 0.66,-0.05 0.67,-0.05 0.66,-0.04 0.66,-0.04 0.67,-0.04 0.66,-0.04 0.67,-0.03 0.66,-0.04 0.67,-0.03 0.66,-0.03 0.67,-0.02 0.67,-0.03 0.66,-0.02 0.67,-0.02 0.67,-0.01 0.67,-0.02 0.66,-0.01 0.67,-0.01 0.67,-0.01 0.67,-0.01 h 0.67 0.66"
             style="fill:none;stroke:#000000;stroke-width:4.27;stroke-linecap:square;stroke-linejoin:round;stroke-miterlimit:10;stroke-dasharray:none;stroke-opacity:1"
             id="path1440" />
          <path
             d="m 433.78,115.54 h -0.46 -0.47 -0.47 l -0.47,-0.01 h -0.46 l -0.47,-0.01 -0.47,-0.01 -0.47,-0.01 -0.46,-0.01 -0.47,-0.01 -0.47,-0.02 -0.46,-0.01 -0.47,-0.02 -0.47,-0.02 -0.46,-0.02 -0.47,-0.02 -0.46,-0.02 -0.47,-0.03 -0.46,-0.02 -0.47,-0.03 -0.46,-0.03 -0.46,-0.02 -0.47,-0.04 -0.46,-0.03 -0.46,-0.03 -0.46,-0.04 -0.46,-0.03 -0.46,-0.04 -0.46,-0.04 -0.46,-0.04 -0.46,-0.04 -0.46,-0.04 -0.46,-0.04 -0.46,-0.05 -0.45,-0.05 -0.46,-0.04 -0.46,-0.05 -0.45,-0.05 -0.45,-0.06 -0.46,-0.05 -0.45,-0.05 -0.45,-0.06 -0.45,-0.06 -0.45,-0.06 -0.45,-0.06 -0.45,-0.06 -0.45,-0.06 -0.45,-0.06 -0.44,-0.07 -0.45,-0.06 -0.44,-0.07 -0.44,-0.07 -0.45,-0.07 -0.44,-0.07 -0.44,-0.07 -0.44,-0.08 -0.44,-0.07 -0.43,-0.08 -0.44,-0.08 -0.44,-0.08 -0.43,-0.08 -0.43,-0.08 -0.43,-0.08 -0.44,-0.09 -0.43,-0.08 -0.42,-0.09 -0.43,-0.09 -0.43,-0.09 -0.42,-0.09 -0.43,-0.09 -0.42,-0.09 -0.42,-0.09 -0.42,-0.1 -0.42,-0.1 -0.41,-0.09 -0.42,-0.1 -0.42,-0.1 -0.41,-0.1 -0.41,-0.11 -0.41,-0.1 -0.41,-0.11 -0.41,-0.1 -0.4,-0.11 -0.41,-0.11 -0.4,-0.11 -0.4,-0.11 -0.4,-0.11 -0.4,-0.11 -0.4,-0.12 -0.39,-0.11 -0.4,-0.12 -0.39,-0.12 -0.39,-0.12 -0.39,-0.12 -0.39,-0.12 -0.38,-0.12 -0.39,-0.12 -0.38,-0.13 -0.38,-0.12 -0.38,-0.13 -0.37,-0.13 -0.38,-0.13 -0.37,-0.13 -0.38,-0.13 -0.37,-0.13 -0.36,-0.13 -0.37,-0.14 -0.36,-0.13 -0.37,-0.14 -0.36,-0.14 -0.36,-0.14 -0.35,-0.14 -0.36,-0.14 -0.35,-0.14 -0.35,-0.14 -0.35,-0.14 -0.35,-0.15 -0.35,-0.15 -0.34,-0.14 -0.34,-0.15 -0.34,-0.15 -0.34,-0.15 -0.33,-0.15 -0.34,-0.15 -0.33,-0.15 -0.33,-0.16 -0.32,-0.15 -0.33,-0.16 -0.32,-0.15 -0.32,-0.16 -0.32,-0.16 -0.32,-0.16 -0.31,-0.16 -0.31,-0.16 -0.31,-0.16 -0.31,-0.16 -0.31,-0.17 -0.3,-0.16 -0.3,-0.17 -0.3,-0.16 -0.3,-0.17 -0.29,-0.17 -0.29,-0.17 -0.29,-0.17 -0.29,-0.17 -0.28,-0.17 -0.29,-0.17 -0.28,-0.18 -0.27,-0.17 -0.28,-0.18 -0.27,-0.17 -0.27,-0.18 -0.27,-0.17 -0.27,-0.18 -0.26,-0.18 -0.26,-0.18 -0.26,-0.18 -0.26,-0.18 -0.25,-0.18 -0.25,-0.19 -0.25,-0.18 -0.24,-0.18 -0.25,-0.19 -0.24,-0.18 -0.24,-0.19 -0.23,-0.19 -0.24,-0.18 -0.23,-0.19 -0.23,-0.19 -0.22,-0.19 -0.22,-0.19 -0.23,-0.19 -0.21,-0.19 -0.22,-0.19 -0.21,-0.2 -0.21,-0.19 -0.21,-0.19 -0.2,-0.2 -0.21,-0.19 -0.2,-0.2 -0.19,-0.19 -0.2,-0.2 -0.19,-0.2 -0.19,-0.2 -0.18,-0.19 -0.19,-0.2 -0.18,-0.2 -0.18,-0.2 -0.17,-0.2 -0.17,-0.2 -0.17,-0.21 -0.17,-0.2 -0.16,-0.2 -0.17,-0.2 -0.15,-0.21 -0.16,-0.2 -0.15,-0.2 -0.15,-0.21 -0.15,-0.2 -0.15,-0.21 -0.14,-0.21 -0.14,-0.2 -0.13,-0.21 -0.14,-0.21 -0.13,-0.2 -0.13,-0.21 -0.12,-0.21 -0.12,-0.21 -0.12,-0.21 -0.12,-0.21 -0.11,-0.21 -0.11,-0.21 -0.11,-0.21 -0.11,-0.21 -0.1,-0.21 -0.1,-0.21 -0.09,-0.21 -0.1,-0.21 -0.09,-0.22 -0.09,-0.21 -0.08,-0.21 -0.08,-0.21 -0.08,-0.22 -0.08,-0.21 -0.07,-0.21 -0.07,-0.22 -0.07,-0.21 -0.06,-0.22 -0.07,-0.21 -0.06,-0.21 -0.05,-0.22 -0.05,-0.21 -0.05,-0.22 -0.05,-0.21 -0.04,-0.22 -0.05,-0.21 -0.03,-0.22 -0.04,-0.22 -0.03,-0.21 -0.03,-0.22 -0.03,-0.21 -0.02,-0.22 -0.02,-0.21 -0.02,-0.22 -0.01,-0.22 -0.02,-0.21 -0.01,-0.22 v -0.22 -0.21 -0.22 -0.21 -0.22 l 0.01,-0.22 0.02,-0.21 0.01,-0.22 0.02,-0.22 0.02,-0.21 0.02,-0.22 0.03,-0.21 0.03,-0.22 0.03,-0.21 0.04,-0.22 0.03,-0.22 0.05,-0.21 0.04,-0.22 0.05,-0.21 0.05,-0.22 0.05,-0.21 0.05,-0.22 0.06,-0.21 0.07,-0.21 0.06,-0.22 0.07,-0.21 0.07,-0.22 0.07,-0.21 0.08,-0.21 0.08,-0.22 0.08,-0.21 0.08,-0.21 0.09,-0.21 0.09,-0.22 0.1,-0.21 0.09,-0.21 0.1,-0.21 0.1,-0.21 0.11,-0.21 0.11,-0.21 0.11,-0.21 0.11,-0.21 0.12,-0.21 0.12,-0.21 0.12,-0.21 0.12,-0.21 0.13,-0.21 0.13,-0.2 0.14,-0.21 0.13,-0.21 0.14,-0.2 0.14,-0.21 0.15,-0.21 0.15,-0.2 0.15,-0.21 0.15,-0.2 0.16,-0.2 0.15,-0.21 0.17,-0.2 0.16,-0.2 0.17,-0.2 0.17,-0.21 0.17,-0.2 0.17,-0.2 0.18,-0.2 0.18,-0.2 0.19,-0.2 0.18,-0.19 0.19,-0.2 0.19,-0.2 0.2,-0.2 0.19,-0.19 0.2,-0.2 0.21,-0.19 0.2,-0.2 0.21,-0.19 0.21,-0.19 0.21,-0.2 0.22,-0.19 0.21,-0.19 0.23,-0.19 0.22,-0.19 0.22,-0.19 0.23,-0.19 0.23,-0.19 0.24,-0.18 0.23,-0.19 0.24,-0.19 0.24,-0.18 0.25,-0.19 0.24,-0.18 0.25,-0.18 0.25,-0.19 0.25,-0.18 0.26,-0.18 0.26,-0.18 0.26,-0.18 0.26,-0.18 0.27,-0.18 0.27,-0.17 0.27,-0.18 0.27,-0.17 0.28,-0.18 0.27,-0.17 0.28,-0.18 0.29,-0.17 0.28,-0.17 0.29,-0.17 0.29,-0.17 0.29,-0.17 0.29,-0.17 0.3,-0.16 0.3,-0.17 0.3,-0.17 0.3,-0.16 0.31,-0.17 0.31,-0.16 0.31,-0.16 0.31,-0.16 0.31,-0.16 0.32,-0.16 0.32,-0.16 0.32,-0.16 0.32,-0.15 0.33,-0.16 0.32,-0.15 0.33,-0.16 0.33,-0.15 0.34,-0.15 0.33,-0.15 0.34,-0.15 0.34,-0.15 0.34,-0.15 0.34,-0.14 0.35,-0.15 0.35,-0.15 0.35,-0.14 0.35,-0.14 0.35,-0.14 0.36,-0.14 0.35,-0.14 0.36,-0.14 0.36,-0.14 0.37,-0.14 0.36,-0.13 0.37,-0.14 0.36,-0.13 0.37,-0.13 0.38,-0.13 0.37,-0.13 0.38,-0.13 0.37,-0.13 0.38,-0.13 0.38,-0.12 0.38,-0.13 0.39,-0.12 0.38,-0.12 0.39,-0.12 0.39,-0.12 0.39,-0.12 0.39,-0.12 0.4,-0.12 0.39,-0.11 0.4,-0.12 0.4,-0.11 0.4,-0.11 0.4,-0.11 0.4,-0.11 0.41,-0.11 0.4,-0.11 0.41,-0.1 0.41,-0.11 0.41,-0.1 0.41,-0.11 0.41,-0.1 0.42,-0.1 0.42,-0.1 0.41,-0.09 0.42,-0.1 0.42,-0.1 0.42,-0.09 0.42,-0.09 0.43,-0.09 0.42,-0.09 0.43,-0.09 0.43,-0.09 0.42,-0.09 0.43,-0.08 0.44,-0.09 0.43,-0.08 0.43,-0.08 0.43,-0.08 0.44,-0.08 0.44,-0.08 0.43,-0.08 0.44,-0.07 0.44,-0.08 0.44,-0.07 0.44,-0.07 0.45,-0.07 0.44,-0.07 0.44,-0.07 0.45,-0.06 0.44,-0.07 0.45,-0.06 0.45,-0.06 0.45,-0.06 0.45,-0.06 0.45,-0.06 0.45,-0.06 0.45,-0.06 0.45,-0.05 0.46,-0.05 0.45,-0.06 0.45,-0.05 0.46,-0.05 0.46,-0.04 0.45,-0.05 0.46,-0.05 0.46,-0.04 0.46,-0.04 0.46,-0.04 0.46,-0.04 0.46,-0.04 0.46,-0.04 0.46,-0.03 0.46,-0.04 0.46,-0.03 0.46,-0.03 0.47,-0.03 0.46,-0.03 0.46,-0.03 0.47,-0.03 0.46,-0.02 0.47,-0.03 0.46,-0.02 0.47,-0.02 0.46,-0.02 0.47,-0.02 0.47,-0.02 0.46,-0.01 0.47,-0.02 0.47,-0.01 0.46,-0.01 0.47,-0.01 0.47,-0.01 0.47,-0.01 h 0.46 l 0.47,-0.01 h 0.47 0.47 0.46"
             style="fill:none;stroke:#000000;stroke-width:4.27;stroke-linecap:square;stroke-linejoin:round;stroke-miterlimit:10;stroke-dasharray:none;stroke-opacity:1"
             id="path1442" />
        </g>
      </g>
      <g
         id="g1444" />
      <g
         id="g1446" />
      <g
         id="g1448" />
      <g
         id="g1450" />
      <g
         id="g1452" />
      <g
         id="g1454" />
      <g
         id="g1456" />
      <g
         id="g1458" />
      <g
         id="g1460" />
      <g
         id="g1462" />
      <g
         id="g1464" />
      <g
         id="g1466" />
      <g
         id="g1468" />
      <g
         id="g1470" />
      <g
         id="g1472" />
      <g
         id="g1474" />
      <g
         id="g1476" />
      <g
         id="g1478" />
      <g
         id="g1480" />
      <g
         id="g1482" />
      <g
         id="g1484" />
      <g
         id="g1486" />
      <g
         id="g1488" />
      <g
         id="g1490" />
      <g
         id="g1492" />
      <g
         id="g1494" />
      <g
         id="g1496" />
      <g
         id="g1498" />
      <g
         id="g1500" />
      <g
         id="g1502" />
      <g
         id="g1504" />
      <g
         id="g1506" />
      <g
         id="g1508" />
      <g
         id="g1510" />
      <g
         id="g1512" />
      <g
         id="g1514" />
      <g
         id="g1516" />
      <g
         id="g1518" />
      <g
         id="g1520" />
      <g
         id="g1522" />
      <g
         id="g1524" />
      <g
         id="g1526" />
      <g
         id="g1528" />
      <g
         id="g1530" />
    </g>
  </g>
</svg>
