<?xml version="1.0" encoding="UTF-8" standalone="no"?>
<!-- Created with Inkscape (http://www.inkscape.org/) -->

<svg
   width="203.90575mm"
   height="235.45007mm"
   viewBox="0 0 203.90575 235.45007"
   version="1.1"
   id="svg5"
   sodipodi:docname="hex-sticker.svg"
   inkscape:version="1.1.1 (eb90963e84, 2021-10-02)"
   xmlns:inkscape="http://www.inkscape.org/namespaces/inkscape"
   xmlns:sodipodi="http://sodipodi.sourceforge.net/DTD/sodipodi-0.dtd"
   xmlns="http://www.w3.org/2000/svg"
   xmlns:svg="http://www.w3.org/2000/svg">
  <sodipodi:namedview
     id="namedview7"
     pagecolor="#ffffff"
     bordercolor="#666666"
     borderopacity="1.0"
     inkscape:pageshadow="2"
     inkscape:pageopacity="0.0"
     inkscape:pagecheckerboard="0"
     inkscape:document-units="mm"
     showgrid="false"
     inkscape:zoom="0.64"
     inkscape:cx="203.90625"
     inkscape:cy="586.71875"
     inkscape:window-width="1920"
     inkscape:window-height="1136"
     inkscape:window-x="0"
     inkscape:window-y="0"
     inkscape:window-maximized="1"
     inkscape:current-layer="layer2"
     fit-margin-top="0"
     fit-margin-left="0"
     fit-margin-right="0"
     fit-margin-bottom="0" />
  <defs
     id="defs2">
    <linearGradient
       id="linearGradient13923"
       inkscape:swatch="gradient">
      <stop
         style="stop-color:#3c69e4;stop-opacity:1;"
         offset="0"
         id="stop13919" />
      <stop
         style="stop-color:#3c69e4;stop-opacity:0;"
         offset="1"
         id="stop13921" />
    </linearGradient>
    <linearGradient
       id="linearGradient13859"
       inkscape:swatch="solid">
      <stop
         style="stop-color:#634cd4;stop-opacity:1;"
         offset="0"
         id="stop13857" />
    </linearGradient>
    <linearGradient
       id="linearGradient13317"
       inkscape:swatch="solid">
      <stop
         style="stop-color:#8249d7;stop-opacity:1;"
         offset="0"
         id="stop13315" />
    </linearGradient>
    <rect
       x="177.29034"
       y="509.90413"
       width="532.52968"
       height="148.74923"
       id="rect5613" />
    <clipPath
       clipPathUnits="userSpaceOnUse"
       id="clipPath33140">
      <path
         d="m 8.22,8.22 h 490.3 v 346.3 H 8.22 Z"
         id="path33138" />
    </clipPath>
    <style
       type="text/css"
       id="style33611"><![CDATA[
    .svglite line, .svglite polyline, .svglite polygon, .svglite path, .svglite rect, .svglite circle {
      fill: none;
      stroke: #000000;
      stroke-linecap: round;
      stroke-linejoin: round;
      stroke-miterlimit: 10.00;
    }
  ]]></style>
    <clipPath
       id="cpMC4wMHw1MDQuMDB8MC4wMHwzNjAuMDA=">
      <rect
         x="0.00"
         y="0.00"
         width="504.00"
         height="360.00"
         id="rect33617" />
    </clipPath>
    <clipPath
       id="cpOC4yMnw0OTguNTJ8NS40OHwzNTEuNzg=">
      <rect
         x="8.22"
         y="5.48"
         width="490.30"
         height="346.30"
         id="rect33626" />
    </clipPath>
    <style
       type="text/css"
       id="style34198"><![CDATA[
    .svglite line, .svglite polyline, .svglite polygon, .svglite path, .svglite rect, .svglite circle {
      fill: none;
      stroke: #000000;
      stroke-linecap: round;
      stroke-linejoin: round;
      stroke-miterlimit: 10.00;
    }
  ]]></style>
    <clipPath
       id="cpMC4wMHw1MDQuMDB8MC4wMHwzNjAuMDA=-6">
      <rect
         x="0.00"
         y="0.00"
         width="504.00"
         height="360.00"
         id="rect34204" />
    </clipPath>
    <clipPath
       id="cpOC4yMnw0OTguNTJ8NS40OHwzNTEuNzg=-4">
      <rect
         x="8.22"
         y="5.48"
         width="490.30"
         height="346.30"
         id="rect34213" />
    </clipPath>
    <style
       type="text/css"
       id="style34627"><![CDATA[
    .svglite line, .svglite polyline, .svglite polygon, .svglite path, .svglite rect, .svglite circle {
      fill: none;
      stroke: #000000;
      stroke-linecap: round;
      stroke-linejoin: round;
      stroke-miterlimit: 10.00;
    }
  ]]></style>
    <clipPath
       id="cpMC4wMHw1MDQuMDB8MC4wMHwzNjAuMDA=-8">
      <rect
         x="0.00"
         y="0.00"
         width="504.00"
         height="360.00"
         id="rect34633" />
    </clipPath>
    <clipPath
       id="cpOC4yMnw0OTguNTJ8NS40OHwzNTEuNzg=-0">
      <rect
         x="8.22"
         y="5.48"
         width="490.30"
         height="346.30"
         id="rect34642" />
    </clipPath>
    <clipPath
       clipPathUnits="userSpaceOnUse"
       id="clipPath35085">
      <path
         d="m 8.22,8.22 h 490.3 v 346.3 H 8.22 Z"
         id="path35083" />
    </clipPath>
    <clipPath
       clipPathUnits="userSpaceOnUse"
       id="clipPath35516">
      <path
         d="m 8.22,8.22 h 490.3 v 346.3 H 8.22 Z"
         id="path35514" />
    </clipPath>
    <clipPath
       clipPathUnits="userSpaceOnUse"
       id="clipPath37855">
      <path
         d="m 8.22,8.22 h 490.3 v 346.3 H 8.22 Z"
         id="path37853" />
    </clipPath>
    <clipPath
       clipPathUnits="userSpaceOnUse"
       id="clipPath38232">
      <path
         d="m 8.22,8.22 h 490.3 v 346.3 H 8.22 Z"
         id="path38230" />
    </clipPath>
    <clipPath
       clipPathUnits="userSpaceOnUse"
       id="clipPath989">
      <path
         d="m 8.22,8.22 h 490.3 v 346.3 H 8.22 Z"
         id="path987" />
    </clipPath>
    <clipPath
       clipPathUnits="userSpaceOnUse"
       id="clipPath1366">
      <path
         d="m 8.22,8.22 h 490.3 v 346.3 H 8.22 Z"
         id="path1364" />
    </clipPath>
    <clipPath
       clipPathUnits="userSpaceOnUse"
       id="clipPath17183">
      <path
         d="m 8.22,8.22 h 490.3 v 346.3 H 8.22 Z"
         id="path17181" />
    </clipPath>
    <clipPath
       clipPathUnits="userSpaceOnUse"
       id="clipPath17569">
      <path
         d="m 8.22,8.22 h 490.3 v 346.3 H 8.22 Z"
         id="path17567" />
    </clipPath>
    <clipPath
       clipPathUnits="userSpaceOnUse"
       id="clipPath17967">
      <path
         d="m 8.22,8.22 h 490.3 v 346.3 H 8.22 Z"
         id="path17965" />
    </clipPath>
    <clipPath
       clipPathUnits="userSpaceOnUse"
       id="clipPath18517">
      <path
         d="m 8.22,8.22 h 490.3 v 346.3 H 8.22 Z"
         id="path18515" />
    </clipPath>
    <clipPath
       clipPathUnits="userSpaceOnUse"
       id="clipPath18934">
      <path
         d="m 8.22,8.22 h 490.3 v 346.3 H 8.22 Z"
         id="path18932" />
    </clipPath>
    <clipPath
       clipPathUnits="userSpaceOnUse"
       id="clipPath19424">
      <path
         d="m 8.22,8.22 h 490.3 v 346.3 H 8.22 Z"
         id="path19422" />
    </clipPath>
    <clipPath
       clipPathUnits="userSpaceOnUse"
       id="clipPath19920">
      <path
         d="m 8.22,8.22 h 490.3 v 346.3 H 8.22 Z"
         id="path19918" />
    </clipPath>
    <clipPath
       clipPathUnits="userSpaceOnUse"
       id="clipPath20422">
      <path
         d="m 8.22,8.22 h 490.3 v 346.3 H 8.22 Z"
         id="path20420" />
    </clipPath>
    <clipPath
       clipPathUnits="userSpaceOnUse"
       id="clipPath22456">
      <path
         d="m 8.22,8.22 h 490.3 v 346.3 H 8.22 Z"
         id="path22454" />
    </clipPath>
    <clipPath
       clipPathUnits="userSpaceOnUse"
       id="clipPath23096">
      <path
         d="m 8.22,8.22 h 490.3 v 346.3 H 8.22 Z"
         id="path23094" />
    </clipPath>
    <clipPath
       clipPathUnits="userSpaceOnUse"
       id="clipPath27032">
      <path
         d="m 8.22,8.22 h 490.3 v 346.3 H 8.22 Z"
         id="path27030" />
    </clipPath>
    <clipPath
       clipPathUnits="userSpaceOnUse"
       id="clipPath27694">
      <path
         d="m 8.22,8.22 h 490.3 v 346.3 H 8.22 Z"
         id="path27692" />
    </clipPath>
    <clipPath
       clipPathUnits="userSpaceOnUse"
       id="clipPath28128">
      <path
         d="m 8.22,8.22 h 490.3 v 346.3 H 8.22 Z"
         id="path28126" />
    </clipPath>
    <clipPath
       clipPathUnits="userSpaceOnUse"
       id="clipPath28660">
      <path
         d="m 8.22,8.22 h 490.3 v 346.3 H 8.22 Z"
         id="path28658" />
    </clipPath>
    <clipPath
       clipPathUnits="userSpaceOnUse"
       id="clipPath29354">
      <path
         d="m 8.22,8.22 h 490.3 v 346.3 H 8.22 Z"
         id="path29352" />
    </clipPath>
    <clipPath
       clipPathUnits="userSpaceOnUse"
       id="clipPath29952">
      <path
         d="m 8.22,8.22 h 490.3 v 346.3 H 8.22 Z"
         id="path29950" />
    </clipPath>
  </defs>
  <g
     inkscape:label="Hexagon"
     inkscape:groupmode="layer"
     id="layer1"
     transform="translate(-3.0471194,-2.6808826)">
    <path
       sodipodi:type="star"
       style="mix-blend-mode:normal;fill:#d7d7d7;fill-opacity:1;fill-rule:evenodd;stroke:#3e78b2;stroke-width:25.33183894;stroke-miterlimit:4;stroke-dasharray:none;stroke-opacity:1;opacity:1"
       id="path414"
       inkscape:flatsided="true"
       sodipodi:sides="6"
       sodipodi:cx="-20.430073"
       sodipodi:cy="204.62395"
       sodipodi:r1="404.20627"
       sodipodi:r2="350.05289"
       sodipodi:arg1="0.52359878"
       sodipodi:arg2="1.0471976"
       inkscape:rounded="0"
       inkscape:randomized="0"
       d="M 329.62282,406.72708 -20.430075,608.83022 -370.48297,406.72708 l 0,-404.2062686 L -20.430071,-199.58232 329.62282,2.5208145 Z"
       transform="matrix(0.27633209,0,0,0.27633209,110.64548,63.86176)" />
    <path
       d="m 82.547674,152.39036 c -0.843618,0 -1.66777,0.0898 -2.463835,0.25412 v 1.9352 c -1.070166,0.26236 -2.069559,0.68325 -2.983549,1.25103 l -1.347409,-1.36832 c -0.690674,0.4648 -1.32194,1.01015 -1.905622,1.60289 -0.583713,0.59275 -1.120705,1.23381 -1.578394,1.9352 l 1.347409,1.36832 c -0.559105,0.92819 -0.973553,1.94305 -1.231917,3.02986 h -1.905621 c -0.161782,0.80843 -0.250233,1.64537 -0.250233,2.50208 0,0.85672 0.08845,1.69365 0.250233,2.50208 h 1.905621 c 0.258355,1.08677 0.672812,2.10167 1.231917,3.02986 l -1.347409,1.36832 c 0.457689,0.70139 0.994681,1.34245 1.578394,1.9352 0.583682,0.59274 1.214948,1.13809 1.905622,1.60289 l 1.347409,-1.36832 c 0.91399,0.56778 1.913353,0.98866 2.983549,1.25103 v 1.9352 c 0.796065,0.16429 1.620217,0.25412 2.463835,0.25412 0.843585,0 1.667743,-0.0898 2.463837,-0.25412 v -1.9352 c 1.070161,-0.26236 2.069562,-0.68325 2.983548,-1.25103 l 1.347407,1.36832 c 0.69068,-0.4648 1.321915,-1.01015 1.905622,-1.60289 0.583684,-0.59275 1.120703,-1.23381 1.578394,-1.9352 l -1.347406,-1.36832 c 0.5591,-0.92819 0.973548,-1.94305 1.231913,-3.02986 h 1.905622 c 0.161787,-0.80843 0.250229,-1.64536 0.250229,-2.50208 0,-0.85671 -0.08846,-1.69365 -0.250229,-2.50208 h -1.905622 c -0.258365,-1.08677 -0.672813,-2.10167 -1.231913,-3.02986 l 1.347406,-1.36832 c -0.457691,-0.70139 -0.99471,-1.34245 -1.578394,-1.9352 -0.583707,-0.59274 -1.214942,-1.13809 -1.905622,-1.60289 l -1.347407,1.36832 c -0.913986,-0.56778 -1.913387,-0.98866 -2.983548,-1.25103 v -1.9352 c -0.796094,-0.1643 -1.620252,-0.25412 -2.463837,-0.25412 z m 0,6.25519 c 3.40009,0 6.159588,2.80233 6.159588,6.25519 0,3.45287 -2.759498,6.25519 -6.159588,6.25519 -3.400092,0 -6.159586,-2.80232 -6.159586,-6.25519 0,-3.45286 2.759494,-6.25519 6.159586,-6.25519 z"
       fill="#ffffff"
       stroke="#2c2c2c"
       stroke-dashoffset="162"
       stroke-linecap="round"
       stroke-linejoin="round"
       stroke-width="2.34603"
       id="path21026" />
    <path
       d="m 113.54645,158.19598 c -0.84362,0 -1.66778,0.0898 -2.46384,0.25412 v 1.9352 c -1.07017,0.26236 -2.06956,0.68325 -2.98355,1.25103 l -1.34741,-1.36832 c -0.69067,0.4648 -1.32194,1.01015 -1.90562,1.60289 -0.58371,0.59275 -1.1207,1.23381 -1.57839,1.9352 l 1.34741,1.36832 c -0.55911,0.92819 -0.97356,1.94305 -1.23192,3.02986 h -1.90562 c -0.16178,0.80843 -0.25024,1.64537 -0.25024,2.50208 0,0.85672 0.0885,1.69365 0.25024,2.50208 h 1.90562 c 0.25835,1.08677 0.67281,2.10167 1.23192,3.02986 l -1.34741,1.36832 c 0.45769,0.70139 0.99468,1.34245 1.57839,1.9352 0.58368,0.59274 1.21495,1.13809 1.90562,1.60289 l 1.34741,-1.36832 c 0.91399,0.56778 1.91335,0.98866 2.98355,1.25103 v 1.9352 c 0.79606,0.16429 1.62022,0.25412 2.46384,0.25412 0.84358,0 1.66774,-0.0898 2.46383,-0.25412 v -1.9352 c 1.07017,-0.26236 2.06957,-0.68325 2.98355,-1.25103 l 1.34741,1.36832 c 0.69068,-0.4648 1.32192,-1.01015 1.90562,-1.60289 0.58369,-0.59275 1.1207,-1.23381 1.5784,-1.9352 l -1.34741,-1.36832 c 0.5591,-0.92819 0.97355,-1.94305 1.23191,-3.02986 h 1.90562 c 0.16179,-0.80843 0.25023,-1.64536 0.25023,-2.50208 0,-0.85671 -0.0885,-1.69365 -0.25023,-2.50208 h -1.90562 c -0.25836,-1.08677 -0.67281,-2.10167 -1.23191,-3.02986 l 1.34741,-1.36832 c -0.4577,-0.70139 -0.99471,-1.34245 -1.5784,-1.9352 -0.58371,-0.59274 -1.21494,-1.13809 -1.90562,-1.60289 l -1.34741,1.36832 c -0.91398,-0.56778 -1.91338,-0.98866 -2.98355,-1.25103 v -1.9352 c -0.79609,-0.1643 -1.62025,-0.25412 -2.46383,-0.25412 z m 0,6.25519 c 3.40009,0 6.15959,2.80233 6.15959,6.25519 0,3.45287 -2.7595,6.25519 -6.15959,6.25519 -3.4001,0 -6.15959,-2.80232 -6.15959,-6.25519 0,-3.45286 2.75949,-6.25519 6.15959,-6.25519 z"
       fill="#ffffff"
       stroke="#2c2c2c"
       stroke-dashoffset="162"
       stroke-linecap="round"
       stroke-linejoin="round"
       stroke-width="2.34603"
       id="path21026-7" />
  </g>
  <g
     inkscape:groupmode="layer"
     id="layer2"
     inkscape:label="Titel">
    <text
       xml:space="preserve"
       transform="matrix(0.26458333,0,0,0.26458333,-4.2525448,11.799966)"
       id="text5611"
       style="font-style:normal;font-weight:normal;font-size:40px;line-height:1.25;font-family:sans-serif;white-space:pre;shape-inside:url(#rect5613);fill:#000000;fill-opacity:1;stroke:none;stroke-width:1.00157481;stroke-miterlimit:4;stroke-dasharray:none"><tspan
         x="177.29102"
         y="603.43889"
         id="tspan30606"><tspan
           style="font-weight:bold;font-size:106.667px;font-family:'Courier New';-inkscape-font-specification:'Courier New, Bold'"
           id="tspan30604">t    ls</tspan></tspan></text>
    <g
       id="g29934"
       inkscape:label="main_plot"
       transform="matrix(0.27121573,0,0,-0.27121573,33.847143,144.42511)">
      <g
         id="g29936" />
      <g
         id="g29938" />
      <g
         id="g29940" />
      <g
         id="g29942" />
      <g
         id="g29944" />
      <g
         id="g29946">
        <g
           id="g29948"
           clip-path="url(#clipPath29952)">
          <path
             d="M 30.51,23.96 H 476.23"
             style="fill:none;stroke:#3e78b2;stroke-width:8.54;stroke-linecap:round;stroke-linejoin:round;stroke-miterlimit:10;stroke-dasharray:none;stroke-opacity:1"
             id="path29954" />
          <path
             d="m 458.85,19.3 17.38,4.66 -17.38,4.66 z"
             style="fill:#3e78b2;fill-opacity:1;fill-rule:nonzero;stroke:#3e78b2;stroke-width:8.54;stroke-linecap:round;stroke-linejoin:round;stroke-miterlimit:10;stroke-dasharray:none;stroke-opacity:1"
             id="path29956" />
          <path
             d="M 30.51,23.96 V 338.78"
             style="fill:none;stroke:#3e78b2;stroke-width:8.54;stroke-linecap:round;stroke-linejoin:round;stroke-miterlimit:10;stroke-dasharray:none;stroke-opacity:1"
             id="path29958" />
          <path
             d="m 35.16,321.39 -4.65,17.39 -4.66,-17.39 z"
             style="fill:#3e78b2;fill-opacity:1;fill-rule:nonzero;stroke:#3e78b2;stroke-width:8.54;stroke-linecap:round;stroke-linejoin:round;stroke-miterlimit:10;stroke-dasharray:none;stroke-opacity:1"
             id="path29960" />
          <path
             d="M 30.51,23.96 258.55,325.09"
             style="fill:none;stroke:#3e78b2;stroke-width:8.54;stroke-linecap:round;stroke-linejoin:round;stroke-miterlimit:10;stroke-dasharray:none;stroke-opacity:1"
             id="path29962" />
          <path
             d="m 251.77,308.42 6.78,16.67 -14.21,-11.05 z"
             style="fill:#3e78b2;fill-opacity:1;fill-rule:nonzero;stroke:#3e78b2;stroke-width:8.54;stroke-linecap:round;stroke-linejoin:round;stroke-miterlimit:10;stroke-dasharray:none;stroke-opacity:1"
             id="path29964" />
          <path
             d="M 30.51,133.46 154.89,297.72"
             style="fill:none;stroke:#3e78b2;stroke-width:2.13;stroke-linecap:round;stroke-linejoin:round;stroke-miterlimit:10;stroke-dasharray:6.4, 10.67;stroke-dashoffset:0;stroke-opacity:1"
             id="path29966" />
          <path
             d="m 30.51,242.96 41.46,54.76"
             style="fill:none;stroke:#3e78b2;stroke-width:2.13;stroke-linecap:round;stroke-linejoin:round;stroke-miterlimit:10;stroke-dasharray:6.4, 10.67;stroke-dashoffset:0;stroke-opacity:1"
             id="path29968" />
          <path
             d="M 113.43,23.96 320.75,297.72"
             style="fill:none;stroke:#3e78b2;stroke-width:2.13;stroke-linecap:round;stroke-linejoin:round;stroke-miterlimit:10;stroke-dasharray:6.4, 10.67;stroke-dashoffset:0;stroke-opacity:1"
             id="path29970" />
          <path
             d="M 196.36,23.96 403.67,297.72"
             style="fill:none;stroke:#3e78b2;stroke-width:2.13;stroke-linecap:round;stroke-linejoin:round;stroke-miterlimit:10;stroke-dasharray:6.4, 10.67;stroke-dashoffset:0;stroke-opacity:1"
             id="path29972" />
          <path
             d="m 279.28,23.96 165.86,219"
             style="fill:none;stroke:#3e78b2;stroke-width:2.13;stroke-linecap:round;stroke-linejoin:round;stroke-miterlimit:10;stroke-dasharray:6.4, 10.67;stroke-dashoffset:0;stroke-opacity:1"
             id="path29974" />
          <path
             d="m 362.21,23.96 82.93,109.5"
             style="fill:none;stroke:#3e78b2;stroke-width:2.13;stroke-linecap:round;stroke-linejoin:round;stroke-miterlimit:10;stroke-dasharray:6.4, 10.67;stroke-dashoffset:0;stroke-opacity:1"
             id="path29976" />
          <path
             d="M 30.51,133.46 H 445.14"
             style="fill:none;stroke:#3e78b2;stroke-width:2.13;stroke-linecap:round;stroke-linejoin:round;stroke-miterlimit:10;stroke-dasharray:6.4, 10.67;stroke-dashoffset:0;stroke-opacity:1"
             id="path29978" />
          <path
             d="M 30.51,242.96 H 445.14"
             style="fill:none;stroke:#3e78b2;stroke-width:2.13;stroke-linecap:round;stroke-linejoin:round;stroke-miterlimit:10;stroke-dasharray:6.4, 10.67;stroke-dashoffset:0;stroke-opacity:1"
             id="path29980" />
          <path
             d="M 113.43,23.96 V 297.72"
             style="fill:none;stroke:#3e78b2;stroke-width:2.13;stroke-linecap:round;stroke-linejoin:round;stroke-miterlimit:10;stroke-dasharray:6.4, 10.67;stroke-dashoffset:0;stroke-opacity:1"
             id="path29982" />
          <path
             d="M 196.36,23.96 V 297.72"
             style="fill:none;stroke:#3e78b2;stroke-width:2.13;stroke-linecap:round;stroke-linejoin:round;stroke-miterlimit:10;stroke-dasharray:6.4, 10.67;stroke-dashoffset:0;stroke-opacity:1"
             id="path29984" />
          <path
             d="M 279.28,23.96 V 297.72"
             style="fill:none;stroke:#3e78b2;stroke-width:2.13;stroke-linecap:round;stroke-linejoin:round;stroke-miterlimit:10;stroke-dasharray:6.4, 10.67;stroke-dashoffset:0;stroke-opacity:1"
             id="path29986" />
          <path
             d="M 362.21,23.96 V 297.72"
             style="fill:none;stroke:#3e78b2;stroke-width:2.13;stroke-linecap:round;stroke-linejoin:round;stroke-miterlimit:10;stroke-dasharray:6.4, 10.67;stroke-dashoffset:0;stroke-opacity:1"
             id="path29988" />
          <path
             d="M 445.14,23.96 V 297.72"
             style="fill:none;stroke:#3e78b2;stroke-width:2.13;stroke-linecap:round;stroke-linejoin:round;stroke-miterlimit:10;stroke-dasharray:6.4, 10.67;stroke-dashoffset:0;stroke-opacity:1"
             id="path29990" />
          <path
             d="m 30.51,133.46 82.92,109.5"
             style="fill:none;stroke:#000000;stroke-width:4.27;stroke-linecap:round;stroke-linejoin:round;stroke-miterlimit:10;stroke-dasharray:none;stroke-opacity:1"
             id="path29992" />
          <path
             d="m 113.43,242.96 h 20.73"
             style="fill:none;stroke:#000000;stroke-width:4.27;stroke-linecap:round;stroke-linejoin:round;stroke-miterlimit:10;stroke-dasharray:none;stroke-opacity:1"
             id="path29994" />
          <path
             d="m 134.16,242.96 20.73,-54.75"
             style="fill:none;stroke:#000000;stroke-width:4.27;stroke-linecap:round;stroke-linejoin:round;stroke-miterlimit:10;stroke-dasharray:none;stroke-opacity:1"
             id="path29996" />
          <path
             d="m 136.24,163.58 18.65,24.63"
             style="fill:none;stroke:#000000;stroke-width:4.27;stroke-linecap:round;stroke-linejoin:round;stroke-miterlimit:10;stroke-dasharray:none;stroke-opacity:1"
             id="path29998" />
          <path
             d="m 132.09,174.53 4.15,-10.95"
             style="fill:none;stroke:#000000;stroke-width:4.27;stroke-linecap:round;stroke-linejoin:round;stroke-miterlimit:10;stroke-dasharray:none;stroke-opacity:1"
             id="path30000" />
          <path
             d="m 92.7,174.53 h 39.39"
             style="fill:none;stroke:#000000;stroke-width:4.27;stroke-linecap:round;stroke-linejoin:round;stroke-miterlimit:10;stroke-dasharray:none;stroke-opacity:1"
             id="path30002" />
          <path
             d="m 61.6,133.46 31.1,41.07"
             style="fill:none;stroke:#000000;stroke-width:4.27;stroke-linecap:round;stroke-linejoin:round;stroke-miterlimit:10;stroke-dasharray:none;stroke-opacity:1"
             id="path30004" />
          <path
             d="M 30.51,133.46 H 61.6"
             style="fill:none;stroke:#000000;stroke-width:4.27;stroke-linecap:round;stroke-linejoin:round;stroke-miterlimit:10;stroke-dasharray:none;stroke-opacity:1"
             id="path30006" />
          <path
             d="M 196.36,51.34 V 215.59"
             style="fill:none;stroke:#000000;stroke-width:4.27;stroke-linecap:round;stroke-linejoin:round;stroke-miterlimit:10;stroke-dasharray:none;stroke-opacity:1"
             id="path30008" />
          <path
             d="m 196.36,215.59 h 51.83"
             style="fill:none;stroke:#000000;stroke-width:4.27;stroke-linecap:round;stroke-linejoin:round;stroke-miterlimit:10;stroke-dasharray:none;stroke-opacity:1"
             id="path30010" />
          <path
             d="m 227.46,133.46 h 20.73"
             style="fill:none;stroke:#000000;stroke-width:4.27;stroke-linecap:round;stroke-linejoin:round;stroke-miterlimit:10;stroke-dasharray:none;stroke-opacity:1"
             id="path30012" />
          <path
             d="M 227.46,133.46 V 51.34"
             style="fill:none;stroke:#000000;stroke-width:4.27;stroke-linecap:round;stroke-linejoin:round;stroke-miterlimit:10;stroke-dasharray:none;stroke-opacity:1"
             id="path30014" />
          <path
             d="m 196.36,51.34 h 31.1"
             style="fill:none;stroke:#000000;stroke-width:4.27;stroke-linecap:round;stroke-linejoin:round;stroke-miterlimit:10;stroke-dasharray:none;stroke-opacity:1"
             id="path30016" />
          <path
             d="m 389.16,133.46 h 20.73"
             style="fill:none;stroke:#000000;stroke-width:4.27;stroke-linecap:round;stroke-linejoin:round;stroke-miterlimit:10;stroke-dasharray:none;stroke-opacity:1"
             id="path30018" />
          <path
             d="m 409.89,133.46 v -21.9"
             style="fill:none;stroke:#000000;stroke-width:4.27;stroke-linecap:round;stroke-linejoin:round;stroke-miterlimit:10;stroke-dasharray:none;stroke-opacity:1"
             id="path30020" />
          <path
             d="m 399.53,111.56 h 10.36"
             style="fill:none;stroke:#000000;stroke-width:4.27;stroke-linecap:round;stroke-linejoin:round;stroke-miterlimit:10;stroke-dasharray:none;stroke-opacity:1"
             id="path30022" />
          <path
             d="m 389.16,23.96 h 20.73"
             style="fill:none;stroke:#000000;stroke-width:4.27;stroke-linecap:round;stroke-linejoin:round;stroke-miterlimit:10;stroke-dasharray:none;stroke-opacity:1"
             id="path30024" />
          <path
             d="m 409.89,23.96 v 21.9"
             style="fill:none;stroke:#000000;stroke-width:4.27;stroke-linecap:round;stroke-linejoin:round;stroke-miterlimit:10;stroke-dasharray:none;stroke-opacity:1"
             id="path30026" />
          <path
             d="m 399.53,45.86 h 10.36"
             style="fill:none;stroke:#000000;stroke-width:4.27;stroke-linecap:round;stroke-linejoin:round;stroke-miterlimit:10;stroke-dasharray:none;stroke-opacity:1"
             id="path30028" />
          <path
             d="m 103.07,188.21 h 24.87"
             style="fill:none;stroke:#000000;stroke-width:4.27;stroke-linecap:round;stroke-linejoin:round;stroke-miterlimit:10;stroke-dasharray:none;stroke-opacity:1"
             id="path30030" />
          <path
             d="m 103.07,188.21 18.65,26.01"
             style="fill:none;stroke:#000000;stroke-width:4.27;stroke-linecap:round;stroke-linejoin:round;stroke-miterlimit:10;stroke-dasharray:none;stroke-opacity:1"
             id="path30032" />
          <path
             d="m 121.72,214.22 6.22,-26.01"
             style="fill:none;stroke:#000000;stroke-width:4.27;stroke-linecap:round;stroke-linejoin:round;stroke-miterlimit:10;stroke-dasharray:none;stroke-opacity:1"
             id="path30034" />
          <path
             d="m 248.19,133.46 h 0.32 l 0.33,0.01 h 0.33 l 0.32,0.01 h 0.33 l 0.32,0.01 0.33,0.01 0.33,0.01 0.32,0.02 0.33,0.01 0.32,0.02 0.33,0.02 0.32,0.02 0.33,0.02 0.32,0.03 0.33,0.02 0.32,0.03 0.33,0.03 0.32,0.03 0.33,0.03 0.32,0.03 0.32,0.04 0.33,0.03 0.32,0.04 0.32,0.04 0.32,0.04 0.32,0.04 0.33,0.05 0.32,0.05 0.32,0.04 0.32,0.05 0.32,0.05 0.32,0.06 0.32,0.05 0.32,0.06 0.31,0.05 0.32,0.06 0.32,0.06 0.32,0.06 0.31,0.07 0.32,0.06 0.31,0.07 0.32,0.07 0.31,0.07 0.31,0.07 0.32,0.07 0.31,0.08 0.31,0.07 0.31,0.08 0.31,0.08 0.31,0.08 0.31,0.08 0.31,0.09 0.31,0.08 0.31,0.09 0.3,0.09 0.31,0.09 0.3,0.09 0.31,0.09 0.3,0.1 0.31,0.09 0.3,0.1 0.3,0.1 0.3,0.1 0.3,0.1 0.3,0.11 0.3,0.1 0.29,0.11 0.3,0.11 0.3,0.11 0.29,0.11 0.29,0.11 0.3,0.11 0.29,0.12 0.29,0.12 0.29,0.11 0.29,0.12 0.29,0.13 0.29,0.12 0.28,0.12 0.29,0.13 0.28,0.12 0.28,0.13 0.29,0.13 0.28,0.13 0.28,0.14 0.28,0.13 0.28,0.14 0.27,0.13 0.28,0.14 0.27,0.14 0.28,0.14 0.27,0.14 0.27,0.15 0.27,0.14 0.27,0.15 0.27,0.14 0.26,0.15 0.27,0.15 0.26,0.16 0.27,0.15 0.26,0.15 0.26,0.16 0.26,0.15 0.26,0.16 0.25,0.16 0.26,0.16 0.25,0.16 0.26,0.17 0.25,0.16 0.25,0.17 0.25,0.16 0.25,0.17 0.24,0.17 0.25,0.17 0.24,0.18 0.24,0.17 0.25,0.17 0.24,0.18 0.23,0.17 0.24,0.18 0.24,0.18 0.23,0.18 0.23,0.18 0.23,0.19 0.23,0.18 0.23,0.18 0.23,0.19 0.22,0.19 0.23,0.19 0.22,0.18 0.22,0.19 0.22,0.2 0.22,0.19 0.21,0.19 0.22,0.2 0.21,0.19 0.21,0.2 0.21,0.2 0.21,0.2 0.21,0.2 0.2,0.2 0.21,0.2 0.2,0.2 0.2,0.21 0.2,0.2 0.19,0.21 0.2,0.21 0.19,0.2 0.19,0.21 0.2,0.21 0.18,0.21 0.19,0.21 0.19,0.22 0.18,0.21 0.18,0.22 0.18,0.21 0.18,0.22 0.18,0.21 0.17,0.22 0.18,0.22 0.17,0.22 0.17,0.22 0.17,0.22 0.16,0.23 0.17,0.22 0.16,0.22 0.16,0.23 0.16,0.22 0.16,0.23 0.15,0.23 0.16,0.23 0.15,0.22 0.15,0.23 0.15,0.23 0.15,0.24 0.14,0.23 0.14,0.23 0.14,0.23 0.14,0.24 0.14,0.23 0.14,0.24 0.13,0.23 0.13,0.24 0.13,0.24 0.13,0.23 0.13,0.24 0.12,0.24 0.12,0.24 0.12,0.24 0.12,0.24 0.12,0.24 0.11,0.25 0.11,0.24 0.11,0.24 0.11,0.24 0.11,0.25 0.11,0.24 0.1,0.25 0.1,0.25 0.1,0.24 0.1,0.25 0.09,0.25 0.09,0.24 0.1,0.25 0.08,0.25 0.09,0.25 0.09,0.25 0.08,0.25 0.08,0.25 0.08,0.25 0.08,0.25 0.07,0.25 0.08,0.25 0.07,0.26 0.07,0.25 0.06,0.25 0.07,0.26 0.06,0.25 0.06,0.25 0.06,0.26 0.06,0.25 0.06,0.26 0.05,0.25 0.05,0.26 0.05,0.25 0.05,0.26 0.04,0.25 0.04,0.26 0.05,0.26 0.03,0.25 0.04,0.26 0.04,0.26 0.03,0.26 0.03,0.25 0.03,0.26 0.03,0.26 0.02,0.26 0.02,0.25 0.02,0.26 0.02,0.26 0.02,0.26 0.01,0.26 0.01,0.25 0.02,0.26 v 0.26 l 0.01,0.26 v 0.26 l 0.01,0.26 v 0.26 l -0.01,0.25 v 0.26 l -0.01,0.26 v 0.26 l -0.02,0.26 -0.01,0.26 -0.01,0.25 -0.02,0.26 -0.02,0.26 -0.02,0.26 -0.02,0.26 -0.02,0.25 -0.03,0.26 -0.03,0.26 -0.03,0.26 -0.03,0.25 -0.04,0.26 -0.04,0.26 -0.03,0.25 -0.05,0.26 -0.04,0.26 -0.04,0.25 -0.05,0.26 -0.05,0.25 -0.05,0.26 -0.05,0.26 -0.06,0.25 -0.06,0.25 -0.06,0.26 -0.06,0.25 -0.06,0.26 -0.07,0.25 -0.06,0.25 -0.07,0.26 -0.07,0.25 -0.08,0.25 -0.07,0.25 -0.08,0.25 -0.08,0.25 -0.08,0.25 -0.08,0.25 -0.09,0.25 -0.09,0.25 -0.08,0.25 -0.1,0.25 -0.09,0.25 -0.09,0.24 -0.1,0.25 -0.1,0.25 -0.1,0.24 -0.1,0.25 -0.11,0.24 -0.11,0.25 -0.11,0.24 -0.11,0.24 -0.11,0.25 -0.11,0.24 -0.12,0.24 -0.12,0.24 -0.12,0.24 -0.12,0.24 -0.12,0.24 -0.13,0.24 -0.13,0.24 -0.13,0.23 -0.13,0.24 -0.13,0.24 -0.14,0.23 -0.14,0.24 -0.14,0.23 -0.14,0.23 -0.14,0.24 -0.14,0.23 -0.15,0.23 -0.15,0.23 -0.15,0.23 -0.15,0.23 -0.16,0.22 -0.15,0.23 -0.16,0.23 -0.16,0.22 -0.16,0.23 -0.16,0.22 -0.17,0.23 -0.16,0.22 -0.17,0.22 -0.17,0.22 -0.17,0.22 -0.18,0.22 -0.17,0.22 -0.18,0.21 -0.18,0.22 -0.18,0.22 -0.18,0.21 -0.18,0.21 -0.19,0.22 -0.19,0.21 -0.18,0.21 -0.2,0.21 -0.19,0.21 -0.19,0.21 -0.2,0.2 -0.19,0.21 -0.2,0.2 -0.2,0.21 -0.2,0.2 -0.21,0.2 -0.2,0.2 -0.21,0.2 -0.21,0.2 -0.21,0.2 -0.21,0.2 -0.21,0.19 -0.22,0.2 -0.21,0.19 -0.22,0.2 -0.22,0.19 -0.22,0.19 -0.22,0.19 -0.23,0.18 -0.22,0.19 -0.23,0.19 -0.23,0.18 -0.23,0.19 -0.23,0.18 -0.23,0.18 -0.23,0.18 -0.24,0.18 -0.24,0.18 -0.23,0.17 -0.24,0.18 -0.25,0.17 -0.24,0.18 -0.24,0.17 -0.25,0.17 -0.24,0.17 -0.25,0.17 -0.25,0.16 -0.25,0.17 -0.25,0.16 -0.26,0.17 -0.25,0.16 -0.26,0.16 -0.25,0.16 -0.26,0.16 -0.26,0.15 -0.26,0.16 -0.26,0.15 -0.27,0.16 -0.26,0.15 -0.27,0.15 -0.26,0.15 -0.27,0.14 -0.27,0.15 -0.27,0.15 -0.27,0.14 -0.27,0.14 -0.28,0.14 -0.27,0.14 -0.28,0.14 -0.27,0.14 -0.28,0.13 -0.28,0.14 -0.28,0.13 -0.28,0.13 -0.29,0.13 -0.28,0.13 -0.28,0.12 -0.29,0.13 -0.28,0.12 -0.29,0.13 -0.29,0.12 -0.29,0.12 -0.29,0.12 -0.29,0.11 -0.29,0.12 -0.3,0.11 -0.29,0.11 -0.29,0.12 -0.3,0.11 -0.3,0.1 -0.29,0.11 -0.3,0.11 -0.3,0.1 -0.3,0.1 -0.3,0.1 -0.3,0.1 -0.3,0.1 -0.31,0.09 -0.3,0.1 -0.31,0.09 -0.3,0.09 -0.31,0.09 -0.3,0.09 -0.31,0.09 -0.31,0.08 -0.31,0.09 -0.31,0.08 -0.31,0.08 -0.31,0.08 -0.31,0.08 -0.31,0.07 -0.31,0.08 -0.32,0.07 -0.31,0.07 -0.31,0.07 -0.32,0.07 -0.31,0.07 -0.32,0.06 -0.31,0.07 -0.32,0.06 -0.32,0.06 -0.32,0.06 -0.31,0.06 -0.32,0.05 -0.32,0.06 -0.32,0.05 -0.32,0.05 -0.32,0.05 -0.32,0.05 -0.32,0.04 -0.33,0.05 -0.32,0.04 -0.32,0.04 -0.32,0.04 -0.32,0.04 -0.33,0.04 -0.32,0.03 -0.32,0.03 -0.33,0.04 -0.32,0.03 -0.33,0.02 -0.32,0.03 -0.33,0.03 -0.32,0.02 -0.33,0.02 -0.32,0.02 -0.33,0.02 -0.32,0.02 -0.33,0.01 -0.32,0.02 -0.33,0.01 -0.33,0.01 -0.32,0.01 -0.33,0.01 h -0.32 l -0.33,0.01 h -0.33 -0.32"
             style="fill:none;stroke:#000000;stroke-width:4.27;stroke-linecap:round;stroke-linejoin:round;stroke-miterlimit:10;stroke-dasharray:none;stroke-opacity:1"
             id="path30036" />
          <path
             d="m 221.24,149.89 h 20.73 0.23 0.24 0.23 l 0.24,0.01 h 0.23 l 0.24,0.01 h 0.23 l 0.24,0.01 0.23,0.01 0.24,0.01 0.23,0.01 0.23,0.01 0.24,0.01 0.23,0.01 0.24,0.02 0.23,0.01 0.23,0.02 0.24,0.02 0.23,0.01 0.23,0.02 0.24,0.02 0.23,0.02 0.23,0.03 0.23,0.02 0.24,0.02 0.23,0.03 0.23,0.02 0.23,0.03 0.23,0.03 0.23,0.03 0.23,0.03 0.23,0.03 0.23,0.03 0.23,0.03 0.23,0.03 0.23,0.04 0.23,0.03 0.23,0.04 0.23,0.04 0.23,0.04 0.22,0.03 0.23,0.04 0.23,0.05 0.22,0.04 0.23,0.04 0.22,0.04 0.23,0.05 0.22,0.04 0.23,0.05 0.22,0.05 0.22,0.05 0.23,0.05 0.22,0.05 0.22,0.05 0.22,0.05 0.22,0.05 0.22,0.06 0.22,0.05 0.22,0.06 0.22,0.05 0.22,0.06 0.22,0.06 0.21,0.06 0.22,0.06 0.22,0.06 0.21,0.06 0.22,0.07 0.21,0.06 0.21,0.07 0.22,0.06 0.21,0.07 0.21,0.07 0.21,0.06 0.21,0.07 0.21,0.07 0.21,0.07 0.21,0.08 0.21,0.07 0.2,0.07 0.21,0.08 0.2,0.07 0.21,0.08 0.2,0.08 0.21,0.07 0.2,0.08 0.2,0.08 0.2,0.08 0.2,0.08 0.2,0.09 0.2,0.08 0.2,0.08 0.19,0.09 0.2,0.08 0.19,0.09 0.2,0.08 0.19,0.09 0.2,0.09 0.19,0.09 0.19,0.09 0.19,0.09 0.19,0.09 0.19,0.1 0.19,0.09 0.18,0.09 0.19,0.1 0.18,0.09 0.19,0.1 0.18,0.1 0.18,0.1 0.18,0.09 0.18,0.1 0.18,0.1 0.18,0.1 0.18,0.11 0.18,0.1 0.17,0.1 0.18,0.11 0.17,0.1 0.17,0.11 0.17,0.1 0.17,0.11 0.17,0.11 0.17,0.1 0.17,0.11 0.17,0.11 0.16,0.11 0.17,0.11 0.16,0.11 0.16,0.12 0.16,0.11 0.16,0.11 0.16,0.12 0.16,0.11 0.16,0.12 0.15,0.11 0.16,0.12 0.15,0.12 0.15,0.12 0.15,0.12 0.15,0.11 0.15,0.12 0.15,0.13 0.15,0.12 0.14,0.12 0.15,0.12 0.14,0.12 0.14,0.13 0.14,0.12 0.14,0.13 0.14,0.12 0.14,0.13 0.13,0.12 0.14,0.13 0.13,0.13 0.13,0.13 0.13,0.13 0.13,0.13 0.13,0.12 0.13,0.14 0.13,0.13 0.12,0.13 0.12,0.13 0.13,0.13 0.12,0.13 0.12,0.14 0.12,0.13 0.11,0.14 0.12,0.13 0.11,0.14 0.12,0.13 0.11,0.14 0.11,0.14 0.11,0.13 0.11,0.14 0.1,0.14 0.11,0.14 0.1,0.14 0.11,0.14 0.1,0.14 0.1,0.14 0.1,0.14 0.1,0.14 0.09,0.14 0.1,0.14 0.09,0.14 0.09,0.15 0.09,0.14 0.09,0.14 0.09,0.15 0.09,0.14 0.08,0.15 0.09,0.14 0.08,0.15 0.08,0.14 0.08,0.15 0.08,0.14 0.07,0.15 0.08,0.15 0.07,0.14 0.08,0.15 0.07,0.15 0.07,0.15 0.07,0.15 0.06,0.14 0.07,0.15 0.06,0.15 0.07,0.15 0.06,0.15 0.06,0.15 0.06,0.15 0.05,0.15 0.06,0.15 0.05,0.15 0.06,0.16 0.05,0.15 0.05,0.15 0.05,0.15 0.04,0.15 0.05,0.15 0.04,0.16 0.05,0.15 0.04,0.15 0.04,0.15 0.03,0.16 0.04,0.15 0.04,0.15 0.03,0.16 0.03,0.15 0.03,0.15 0.03,0.16 0.03,0.15 0.03,0.16 0.02,0.15 0.03,0.16 0.02,0.15 0.02,0.15 0.02,0.16 0.02,0.15 0.01,0.16 0.02,0.15 0.01,0.16 0.01,0.15 0.01,0.16 0.01,0.15 0.01,0.16 0.01,0.15 v 0.16 0.15 0.16 0.15 0.16 0.15 0.16 l -0.01,0.15 -0.01,0.16 -0.01,0.15 -0.01,0.16 -0.01,0.15 -0.01,0.16 -0.02,0.15 -0.01,0.16 -0.02,0.15 -0.02,0.16 -0.02,0.15 -0.02,0.16 -0.03,0.15 -0.02,0.15 -0.03,0.16 -0.03,0.15 -0.03,0.16 -0.03,0.15 -0.03,0.15 -0.03,0.16 -0.04,0.15 -0.04,0.15 -0.03,0.16 -0.04,0.15 -0.04,0.15 -0.05,0.16 -0.04,0.15 -0.05,0.15 -0.04,0.15 -0.05,0.15 -0.05,0.16 -0.05,0.15 -0.06,0.15 -0.05,0.15 -0.06,0.15 -0.05,0.15 -0.06,0.15 -0.06,0.15 -0.06,0.15 -0.07,0.15 -0.06,0.15 -0.07,0.15 -0.06,0.15 -0.07,0.14 -0.07,0.15 -0.07,0.15 -0.08,0.15 -0.07,0.15 -0.08,0.14 -0.07,0.15 -0.08,0.14 -0.08,0.15 -0.08,0.15 -0.08,0.14 -0.09,0.15 -0.08,0.14 -0.09,0.15 -0.09,0.14 -0.09,0.14 -0.09,0.15 -0.09,0.14 -0.09,0.14 -0.1,0.14 -0.09,0.14 -0.1,0.15 -0.1,0.14 -0.1,0.14 -0.1,0.14 -0.11,0.14 -0.1,0.13 -0.11,0.14 -0.1,0.14 -0.11,0.14 -0.11,0.14 -0.11,0.13 -0.11,0.14 -0.12,0.14 -0.11,0.13 -0.12,0.14 -0.11,0.13 -0.12,0.13 -0.12,0.14 -0.12,0.13 -0.13,0.13 -0.12,0.13 -0.12,0.14 -0.13,0.13 -0.13,0.13 -0.13,0.13 -0.13,0.13 -0.13,0.12 -0.13,0.13 -0.13,0.13 -0.14,0.13 -0.13,0.12 -0.14,0.13 -0.14,0.13 -0.14,0.12 -0.14,0.12 -0.14,0.13 -0.14,0.12 -0.15,0.12 -0.14,0.13 -0.15,0.12 -0.15,0.12 -0.15,0.12 -0.15,0.12 -0.15,0.12 -0.15,0.11 -0.15,0.12 -0.16,0.12 -0.15,0.11 -0.16,0.12 -0.16,0.11 -0.16,0.12 -0.16,0.11 -0.16,0.12 -0.16,0.11 -0.16,0.11 -0.17,0.11 -0.16,0.11 -0.17,0.11 -0.17,0.11 -0.17,0.11 -0.17,0.1 -0.17,0.11 -0.17,0.11 -0.17,0.1 -0.17,0.11 -0.18,0.1 -0.17,0.1 -0.18,0.11 -0.18,0.1 -0.18,0.1 -0.18,0.1 -0.18,0.1 -0.18,0.1 -0.18,0.09 -0.18,0.1 -0.19,0.1 -0.18,0.09 -0.19,0.1 -0.18,0.09 -0.19,0.1 -0.19,0.09 -0.19,0.09 -0.19,0.09 -0.19,0.09 -0.19,0.09 -0.2,0.09 -0.19,0.09 -0.2,0.08 -0.19,0.09 -0.2,0.09 -0.19,0.08 -0.2,0.08 -0.2,0.09 -0.2,0.08 -0.2,0.08 -0.2,0.08 -0.2,0.08 -0.2,0.08 -0.21,0.08 -0.2,0.07 -0.21,0.08 -0.2,0.07 -0.21,0.08 -0.2,0.07 -0.21,0.08 -0.21,0.07 -0.21,0.07 -0.21,0.07 -0.21,0.07 -0.21,0.07 -0.21,0.06 -0.21,0.07 -0.22,0.07 -0.21,0.06 -0.21,0.06 -0.22,0.07 -0.21,0.06 -0.22,0.06 -0.22,0.06 -0.21,0.06 -0.22,0.06 -0.22,0.06 -0.22,0.05 -0.22,0.06 -0.22,0.05 -0.22,0.06 -0.22,0.05 -0.22,0.05 -0.22,0.06 -0.22,0.05 -0.23,0.04 -0.22,0.05 -0.22,0.05 -0.23,0.05 -0.22,0.04 -0.23,0.05 -0.22,0.04 -0.23,0.04 -0.22,0.05 -0.23,0.04 -0.23,0.04 -0.22,0.04 -0.23,0.04 -0.23,0.03 -0.23,0.04 -0.23,0.03 -0.23,0.04 -0.23,0.03 -0.23,0.03 -0.23,0.04 -0.23,0.03 -0.23,0.03 -0.23,0.02 -0.23,0.03 -0.23,0.03 -0.23,0.02 -0.23,0.03 -0.24,0.02 -0.23,0.03 -0.23,0.02 -0.23,0.02 -0.24,0.02 -0.23,0.02 -0.23,0.02 -24.95,-32.7 v -16.42"
             style="fill:none;stroke:#000000;stroke-width:4.27;stroke-linecap:round;stroke-linejoin:round;stroke-miterlimit:10;stroke-dasharray:none;stroke-opacity:1"
             id="path30038" />
          <path
             d="m 389.16,23.96 h -0.52 -0.52 l -0.52,0.01 -0.53,0.01 -0.52,0.01 -0.52,0.01 -0.52,0.01 -0.52,0.02 -0.52,0.02 -0.53,0.02 -0.52,0.02 -0.52,0.03 -0.52,0.02 -0.52,0.03 -0.52,0.03 -0.52,0.04 -0.52,0.03 -0.52,0.04 -0.51,0.04 -0.52,0.04 -0.52,0.05 -0.52,0.04 -0.51,0.05 -0.52,0.05 -0.52,0.06 -0.51,0.05 -0.52,0.06 -0.51,0.06 -0.51,0.06 -0.52,0.06 -0.51,0.07 -0.51,0.07 -0.51,0.07 -0.51,0.07 -0.51,0.07 -0.51,0.08 -0.51,0.08 -0.51,0.08 -0.51,0.08 -0.5,0.09 -0.51,0.08 -0.5,0.09 -0.5,0.09 -0.51,0.1 -0.5,0.09 -0.5,0.1 -0.5,0.1 -0.5,0.1 -0.5,0.1 -0.49,0.11 -0.5,0.11 -0.49,0.11 -0.5,0.11 -0.49,0.11 -0.49,0.12 -0.49,0.12 -0.49,0.12 -0.49,0.12 -0.49,0.12 -0.48,0.13 -0.49,0.13 -0.48,0.13 -0.48,0.13 -0.49,0.13 -0.47,0.14 -0.48,0.14 -0.48,0.14 -0.48,0.14 -0.47,0.15 -0.47,0.14 -0.47,0.15 -0.47,0.15 -0.47,0.15 -0.47,0.16 -0.47,0.15 -0.46,0.16 -0.46,0.16 -0.46,0.16 -0.46,0.16 -0.46,0.17 -0.46,0.17 -0.45,0.17 -0.46,0.17 -0.45,0.17 -0.45,0.17 -0.45,0.18 -0.44,0.18 -0.45,0.18 -0.44,0.18 -0.44,0.19 -0.44,0.18 -0.44,0.19 -0.44,0.19 -0.43,0.19 -0.43,0.19 -0.43,0.2 -0.43,0.2 -0.43,0.19 -0.42,0.21 -0.43,0.2 -0.42,0.2 -0.42,0.21 -0.41,0.2 -0.42,0.21 -0.41,0.21 -0.41,0.22 -0.41,0.21 -0.41,0.22 -0.4,0.21 -0.41,0.22 -0.4,0.22 -0.4,0.23 -0.39,0.22 -0.4,0.23 -0.39,0.22 -0.39,0.23 -0.39,0.23 -0.38,0.24 -0.39,0.23 -0.38,0.24 -0.38,0.23 -0.37,0.24 -0.38,0.24 -0.37,0.24 -0.37,0.25 -0.37,0.24 -0.36,0.25 -0.36,0.25 -0.36,0.25 -0.36,0.25 -0.36,0.25 -0.35,0.25 -0.35,0.26 -0.35,0.26 -0.35,0.25 -0.34,0.26 -0.34,0.26 -0.34,0.27 -0.33,0.26 -0.34,0.27 -0.33,0.26 -0.33,0.27 -0.32,0.27 -0.33,0.27 -0.32,0.27 -0.31,0.28 -0.32,0.27 -0.31,0.28 -0.31,0.27 -0.31,0.28 -0.3,0.28 -0.31,0.28 -0.3,0.29 -0.29,0.28 -0.3,0.29 -0.29,0.28 -0.29,0.29 -0.28,0.29 -0.28,0.29 -0.28,0.29 -0.28,0.29 -0.28,0.29 -0.27,0.3 -0.27,0.29 -0.26,0.3 -0.27,0.3 -0.26,0.3 -0.26,0.29 -0.25,0.31 -0.25,0.3 -0.25,0.3 -0.25,0.3 -0.24,0.31 -0.24,0.31 -0.24,0.3 -0.23,0.31 -0.24,0.31 -0.22,0.31 -0.23,0.31 -0.22,0.31 -0.22,0.31 -0.22,0.32 -0.21,0.31 -0.21,0.32 -0.21,0.31 -0.21,0.32 -0.2,0.32 -0.2,0.32 -0.19,0.32 -0.19,0.32 -0.19,0.32 -0.19,0.32 -0.18,0.32 -0.18,0.33 -0.18,0.32 -0.17,0.33 -0.18,0.32 -0.16,0.33 -0.17,0.33 -0.16,0.32 -0.16,0.33 -0.15,0.33 -0.16,0.33 -0.15,0.33 -0.14,0.33 50.08,66.28 0.49,0.12 0.49,0.12 0.49,0.12 0.49,0.12 0.49,0.11 0.5,0.11 0.49,0.11 0.5,0.11 0.49,0.11 0.5,0.1 0.5,0.1 0.5,0.1 0.5,0.1 0.5,0.1 0.51,0.09 0.5,0.09 0.5,0.09 0.51,0.09 0.5,0.08 0.51,0.08 0.51,0.08 0.51,0.08 0.51,0.08 0.51,0.07 0.51,0.08 0.51,0.07 0.51,0.06 0.51,0.07 0.52,0.06 0.51,0.06 0.51,0.06 0.52,0.06 0.51,0.06 0.52,0.05 0.52,0.05 0.51,0.05 0.52,0.04 0.52,0.05 0.52,0.04 0.51,0.04 0.52,0.04 0.52,0.04 0.52,0.03 0.52,0.03 0.52,0.03 0.52,0.03 0.52,0.02 0.52,0.02 0.53,0.02 0.52,0.02 0.52,0.02 0.52,0.01 0.52,0.02 0.52,0.01 h 0.53 l 0.52,0.01 h 0.52 0.52"
             style="fill:none;stroke:#000000;stroke-width:4.27;stroke-linecap:round;stroke-linejoin:round;stroke-miterlimit:10;stroke-dasharray:none;stroke-opacity:1"
             id="path30040" />
          <path
             d="m 399.53,111.56 h -0.37 -0.36 -0.37 l -0.36,-0.01 h -0.37 l -0.36,-0.01 -0.37,-0.01 -0.37,-0.01 -0.36,-0.01 -0.36,-0.01 -0.37,-0.02 -0.36,-0.01 -0.37,-0.02 -0.36,-0.02 -0.37,-0.01 -0.36,-0.02 -0.36,-0.03 -0.37,-0.02 -0.36,-0.02 -0.36,-0.03 -0.36,-0.02 -0.37,-0.03 -0.36,-0.03 -0.36,-0.03 -0.36,-0.03 -0.36,-0.04 -0.36,-0.03 -0.36,-0.04 -0.36,-0.03 -0.36,-0.04 -0.36,-0.04 -0.36,-0.04 -0.36,-0.04 -0.35,-0.05 -0.36,-0.04 -0.36,-0.05 -0.35,-0.05 -0.36,-0.04 -0.35,-0.05 -0.36,-0.05 -0.35,-0.06 -0.35,-0.05 -0.36,-0.05 -0.35,-0.06 -0.35,-0.06 -0.35,-0.06 -0.35,-0.06 -0.35,-0.06 -0.35,-0.06 -0.35,-0.06 -0.34,-0.07 -0.35,-0.06 -0.34,-0.07 -0.35,-0.07 -0.34,-0.07 -0.35,-0.07 -0.34,-0.07 -0.34,-0.07 -0.34,-0.08 -0.34,-0.07 -0.34,-0.08 -0.34,-0.08 -0.34,-0.08 -0.33,-0.08 -0.34,-0.08 -0.33,-0.08 -0.34,-0.09 -0.33,-0.08 -0.33,-0.09 -0.33,-0.09 -0.33,-0.09 -0.33,-0.09 -0.33,-0.09 -0.33,-0.09 -0.32,-0.09 -0.33,-0.1 -0.32,-0.09 -0.33,-0.1 -0.32,-0.1 -0.32,-0.1 -0.32,-0.1 -0.32,-0.1 -0.31,-0.1 -0.32,-0.11 -0.32,-0.1 -0.31,-0.11 -0.31,-0.1 -0.31,-0.11 -0.31,-0.11 -0.31,-0.11 -0.31,-0.11 -0.31,-0.12 -0.3,-0.11 -0.31,-0.11 -0.3,-0.12 -0.3,-0.12 -0.3,-0.12 -0.3,-0.11 -0.3,-0.12 -0.29,-0.13 -0.3,-0.12 -0.29,-0.12 -0.29,-0.13 -0.29,-0.12 -0.29,-0.13 -0.29,-0.13 -0.29,-0.12 -0.28,-0.13 -0.28,-0.13 -0.29,-0.14 -0.28,-0.13 -0.28,-0.13 -0.27,-0.14 -0.28,-0.13 -0.27,-0.14 -0.28,-0.14 -0.27,-0.13 -0.27,-0.14 -0.27,-0.14 -0.26,-0.15 -0.27,-0.14 -0.26,-0.14 -0.26,-0.15 -0.26,-0.14 -0.26,-0.15 -0.26,-0.14 -0.26,-0.15 -0.25,-0.15 -0.25,-0.15 -0.25,-0.15 -0.25,-0.15 -0.25,-0.15 -0.24,-0.16 -0.25,-0.15 -0.24,-0.16 -0.24,-0.15 -0.24,-0.16 -0.24,-0.16 -0.23,-0.15 -0.23,-0.16 -0.24,-0.16 -0.23,-0.16 -0.22,-0.17 -0.23,-0.16 -0.22,-0.16 -0.23,-0.17 -0.22,-0.16 -0.22,-0.17 -0.21,-0.16 -0.22,-0.17 -0.21,-0.17 -0.21,-0.17 -0.21,-0.17 -0.21,-0.17 -0.21,-0.17 -0.2,-0.17 -0.2,-0.17 -0.2,-0.17 -0.2,-0.18 -0.2,-0.17 -0.19,-0.18 -0.19,-0.17 -0.19,-0.18 -0.19,-0.18 -0.19,-0.18 -0.18,-0.17 -0.19,-0.18 -0.18,-0.18 -0.17,-0.18 -0.18,-0.18 -0.17,-0.19 -0.18,-0.18 -0.17,-0.18 -0.17,-0.19 -0.16,-0.18 -0.17,-0.18 -0.16,-0.19 -0.16,-0.19 -0.16,-0.18 -0.15,-0.19 -0.16,-0.19 -0.15,-0.18 -0.15,-0.19 -0.14,-0.19 -0.15,-0.19 -0.14,-0.19 -0.14,-0.19 -0.14,-0.19 -0.14,-0.2 -0.14,-0.19 -0.13,-0.19 -0.13,-0.19 -0.13,-0.2 -0.12,-0.19 -0.13,-0.2 -0.12,-0.19 -0.12,-0.2 -0.12,-0.19 -0.11,-0.2 -0.11,-0.2 -0.12,-0.19 -0.1,-0.2 -0.11,-0.2 -0.11,-0.2 -0.1,-0.2 -0.1,-0.19 -0.1,-0.2 -0.09,-0.2 -0.09,-0.2 -0.1,-0.2 -0.08,-0.2 -0.09,-0.2 -0.09,-0.21 -0.08,-0.2 -0.08,-0.2 -0.07,-0.2 -0.08,-0.2 -0.07,-0.21 -0.07,-0.2 -0.07,-0.2 -0.07,-0.21 -0.06,-0.2 -0.06,-0.2 -0.06,-0.21 -0.06,-0.2 -0.06,-0.21 -0.05,-0.2 -0.05,-0.21 -0.05,-0.2 -0.04,-0.21 -0.05,-0.2 -0.04,-0.21 -0.04,-0.2 -0.03,-0.21 -0.04,-0.2 -0.03,-0.21 -0.03,-0.21 -0.03,-0.2 -0.02,-0.21 -0.03,-0.21 -0.02,-0.2 -0.02,-0.21 -0.01,-0.2 -0.02,-0.21 -0.01,-0.21 -0.01,-0.2 v -0.21 l -0.01,-0.21 v -0.21 -0.2 -0.21 l 0.01,-0.21 v -0.2 l 0.01,-0.21 0.01,-0.21 0.02,-0.2 0.01,-0.21 0.02,-0.21 0.02,-0.2 0.03,-0.21 0.02,-0.21 0.03,-0.2 0.03,-0.21 0.03,-0.2 0.04,-0.21 0.03,-0.21 0.04,-0.2 0.04,-0.21 0.05,-0.2 0.04,-0.21 0.05,-0.2 0.05,-0.21 0.05,-0.2 0.06,-0.21 0.06,-0.2 0.06,-0.2 0.06,-0.21 0.06,-0.2 0.07,-0.2 0.07,-0.21 0.07,-0.2 0.07,-0.2 0.08,-0.21 0.07,-0.2 0.08,-0.2 0.08,-0.2 0.09,-0.2 0.09,-0.2 0.08,-0.2 0.1,-0.2 0.09,-0.2 0.09,-0.2 0.1,-0.2 0.1,-0.2 0.1,-0.2 0.11,-0.2 0.11,-0.2 0.1,-0.19 0.12,-0.2 0.11,-0.2 0.11,-0.19 0.12,-0.2 0.12,-0.2 0.12,-0.19 0.13,-0.2 0.12,-0.19 0.13,-0.19 0.13,-0.2 0.13,-0.19 0.14,-0.19 0.14,-0.19 0.14,-0.19 0.14,-0.19 0.14,-0.19 0.15,-0.19 0.14,-0.19 0.15,-0.19 0.15,-0.19 0.16,-0.19 0.15,-0.19 0.16,-0.18 0.16,-0.19 0.16,-0.18 0.17,-0.19 0.16,-0.18 0.17,-0.19 0.17,-0.18 0.18,-0.18 0.17,-0.18 0.18,-0.18 0.17,-0.18 0.18,-0.18 0.19,-0.18 0.18,-0.18 0.19,-0.18 0.19,-0.18 0.19,-0.17 0.19,-0.18 0.19,-0.18 0.2,-0.17 0.2,-0.17 0.2,-0.18 0.2,-0.17 0.2,-0.17 0.21,-0.17 0.21,-0.17 0.21,-0.17 0.21,-0.17 0.21,-0.17 0.22,-0.16 0.21,-0.17 0.22,-0.17 0.22,-0.16 0.23,-0.17 0.22,-0.16 0.23,-0.16 0.22,-0.16 0.23,-0.16 0.24,-0.16 0.23,-0.16 0.23,-0.16 0.24,-0.16 0.24,-0.16 0.24,-0.15 0.24,-0.16 0.25,-0.15 0.24,-0.15 0.25,-0.16 0.25,-0.15 0.25,-0.15 0.25,-0.15 0.25,-0.15 0.26,-0.14 0.26,-0.15 0.26,-0.15 0.26,-0.14 0.26,-0.15 0.26,-0.14 0.27,-0.14 0.26,-0.14 0.27,-0.14 0.27,-0.14 0.27,-0.14 0.28,-0.14 0.27,-0.14 0.28,-0.13 0.27,-0.14 0.28,-0.13 0.28,-0.13 0.29,-0.13 0.28,-0.13 0.28,-0.13 0.29,-0.13 0.29,-0.13 0.29,-0.13 0.29,-0.12 0.29,-0.13 0.29,-0.12 0.3,-0.12 0.29,-0.12 0.3,-0.12 0.3,-0.12 0.3,-0.12 0.3,-0.12 0.3,-0.11 0.31,-0.12 0.3,-0.11 0.31,-0.11 0.31,-0.12 0.31,-0.11 0.31,-0.11 0.31,-0.1 0.31,-0.11 0.31,-0.11 0.32,-0.1 0.32,-0.11 0.31,-0.1 0.32,-0.1 0.32,-0.1 0.32,-0.1 0.32,-0.1 0.33,-0.09 0.32,-0.1 0.33,-0.09 0.32,-0.1 0.33,-0.09 0.33,-0.09 0.33,-0.09 0.33,-0.09 0.33,-0.09 0.33,-0.08 0.33,-0.09 0.34,-0.08 0.33,-0.09 0.34,-0.08 0.33,-0.08 0.34,-0.08 0.34,-0.08 0.34,-0.07 0.34,-0.08 0.34,-0.07 0.34,-0.08 0.34,-0.07 0.35,-0.07 0.34,-0.07 0.35,-0.07 0.34,-0.06 0.35,-0.07 0.34,-0.07 0.35,-0.06 0.35,-0.06 0.35,-0.06 0.35,-0.06 0.35,-0.06 0.35,-0.06 0.35,-0.05 0.36,-0.06 0.35,-0.05 0.35,-0.05 0.36,-0.05 0.35,-0.05 0.36,-0.05 0.35,-0.05 0.36,-0.05 0.36,-0.04 0.35,-0.04 0.36,-0.04 0.36,-0.05 0.36,-0.04 0.36,-0.03 0.36,-0.04 0.36,-0.04 0.36,-0.03 0.36,-0.03 0.36,-0.04 0.36,-0.03 0.36,-0.02 0.37,-0.03 0.36,-0.03 0.36,-0.02 0.36,-0.03 0.37,-0.02 0.36,-0.02 0.36,-0.02 0.37,-0.02 0.36,-0.02 0.37,-0.02 0.36,-0.01 0.37,-0.01 0.36,-0.02 0.36,-0.01 0.37,-0.01 0.37,-0.01 h 0.36 l 0.37,-0.01 h 0.36 l 0.37,-0.01 h 0.36 0.37"
             style="fill:none;stroke:#000000;stroke-width:4.27;stroke-linecap:round;stroke-linejoin:round;stroke-miterlimit:10;stroke-dasharray:none;stroke-opacity:1"
             id="path30042" />
          <path
             d="M 30.51,133.46 H 61.6 v 0 l 31.1,41.07 v 0 h 39.39 v 0 l 4.15,-10.95 v 0 l 18.65,24.63 -20.73,54.75 20.73,-54.75 -20.73,54.75 h -20.73 l -82.92,-109.5 82.92,109.5 z m 72.56,54.75 h 24.87 -24.87 24.87 l -6.22,26.01 v 0 z"
             style="fill:#333333;fill-opacity:1;fill-rule:evenodd;stroke:none"
             id="path30044" />
          <path
             d="m 196.36,51.34 v 164.25 0 h 51.83 v -82.13 h 0.32 l 0.33,0.01 h 0.33 l 0.32,0.01 h 0.33 l 0.32,0.01 0.33,0.01 0.33,0.01 0.32,0.02 0.33,0.01 0.32,0.02 0.33,0.02 0.32,0.02 0.33,0.02 0.32,0.03 0.33,0.02 0.32,0.03 0.33,0.03 0.32,0.03 0.33,0.03 0.32,0.03 0.32,0.04 0.33,0.03 0.32,0.04 0.32,0.04 0.32,0.04 0.32,0.04 0.33,0.05 0.32,0.05 0.32,0.04 0.32,0.05 0.32,0.05 0.32,0.06 0.32,0.05 0.32,0.06 0.31,0.05 0.32,0.06 0.32,0.06 0.32,0.06 0.31,0.07 0.32,0.06 0.31,0.07 0.32,0.07 0.31,0.07 0.31,0.07 0.32,0.07 0.31,0.08 0.31,0.07 0.31,0.08 0.31,0.08 0.31,0.08 0.31,0.08 0.31,0.09 0.31,0.08 0.31,0.09 0.3,0.09 0.31,0.09 0.3,0.09 0.31,0.09 0.3,0.1 0.31,0.09 0.3,0.1 0.3,0.1 0.3,0.1 0.3,0.1 0.3,0.11 0.3,0.1 0.29,0.11 0.3,0.11 0.3,0.11 0.29,0.11 0.29,0.11 0.3,0.11 0.29,0.12 0.29,0.12 0.29,0.11 0.29,0.12 0.29,0.13 0.29,0.12 0.28,0.12 0.29,0.13 0.28,0.12 0.28,0.13 0.29,0.13 0.28,0.13 0.28,0.14 0.28,0.13 0.28,0.14 0.27,0.13 0.28,0.14 0.27,0.14 0.28,0.14 0.27,0.14 0.27,0.15 0.27,0.14 0.27,0.15 0.27,0.14 0.26,0.15 0.27,0.15 0.26,0.16 0.27,0.15 0.26,0.15 0.26,0.16 0.26,0.15 0.26,0.16 0.25,0.16 0.26,0.16 0.25,0.16 0.26,0.17 0.25,0.16 0.25,0.17 0.25,0.16 0.25,0.17 0.24,0.17 0.25,0.17 0.24,0.18 0.24,0.17 0.25,0.17 0.24,0.18 0.23,0.17 0.24,0.18 0.24,0.18 0.23,0.18 0.23,0.18 0.23,0.19 0.23,0.18 0.23,0.18 0.23,0.19 0.22,0.19 0.23,0.19 0.22,0.18 0.22,0.19 0.22,0.2 0.22,0.19 0.21,0.19 0.22,0.2 0.21,0.19 0.21,0.2 0.21,0.2 0.21,0.2 0.21,0.2 0.2,0.2 0.21,0.2 0.2,0.2 0.2,0.21 0.2,0.2 0.19,0.21 0.2,0.21 0.19,0.2 0.19,0.21 0.2,0.21 0.18,0.21 0.19,0.21 0.19,0.22 0.18,0.21 0.18,0.22 0.18,0.21 0.18,0.22 0.18,0.21 0.17,0.22 0.18,0.22 0.17,0.22 0.17,0.22 0.17,0.22 0.16,0.23 0.17,0.22 0.16,0.22 0.16,0.23 0.16,0.22 0.16,0.23 0.15,0.23 0.16,0.23 0.15,0.22 0.15,0.23 0.15,0.23 0.15,0.24 0.14,0.23 0.14,0.23 0.14,0.23 0.14,0.24 0.14,0.23 0.14,0.24 0.13,0.23 0.13,0.24 0.13,0.24 0.13,0.23 0.13,0.24 0.12,0.24 0.12,0.24 0.12,0.24 0.12,0.24 0.12,0.24 0.11,0.25 0.11,0.24 0.11,0.24 0.11,0.24 0.11,0.25 0.11,0.24 0.1,0.25 0.1,0.25 0.1,0.24 0.1,0.25 0.09,0.25 0.09,0.24 0.1,0.25 0.08,0.25 0.09,0.25 0.09,0.25 0.08,0.25 0.08,0.25 0.08,0.25 0.08,0.25 0.07,0.25 0.08,0.25 0.07,0.26 0.07,0.25 0.06,0.25 0.07,0.26 0.06,0.25 0.06,0.25 0.06,0.26 0.06,0.25 0.06,0.26 0.05,0.25 0.05,0.26 0.05,0.25 0.05,0.26 0.04,0.25 0.04,0.26 0.05,0.26 0.03,0.25 0.04,0.26 0.04,0.26 0.03,0.26 0.03,0.25 0.03,0.26 0.03,0.26 0.02,0.26 0.02,0.25 0.02,0.26 0.02,0.26 0.02,0.26 0.01,0.26 0.01,0.25 0.02,0.26 v 0.26 l 0.01,0.26 v 0.26 l 0.01,0.26 v 0.26 l -0.01,0.25 v 0.26 l -0.01,0.26 v 0.26 l -0.02,0.26 -0.01,0.26 -0.01,0.25 -0.02,0.26 -0.02,0.26 -0.02,0.26 -0.02,0.26 -0.02,0.25 -0.03,0.26 -0.03,0.26 -0.03,0.26 -0.03,0.25 -0.04,0.26 -0.04,0.26 -0.03,0.25 -0.05,0.26 -0.04,0.26 -0.04,0.25 -0.05,0.26 -0.05,0.25 -0.05,0.26 -0.05,0.26 -0.06,0.25 -0.06,0.25 -0.06,0.26 -0.06,0.25 -0.06,0.26 -0.07,0.25 -0.06,0.25 -0.07,0.26 -0.07,0.25 -0.08,0.25 -0.07,0.25 -0.08,0.25 -0.08,0.25 -0.08,0.25 -0.08,0.25 -0.09,0.25 -0.09,0.25 -0.08,0.25 -0.1,0.25 -0.09,0.25 -0.09,0.24 -0.1,0.25 -0.1,0.25 -0.1,0.24 -0.1,0.25 -0.11,0.24 -0.11,0.25 -0.11,0.24 -0.11,0.24 -0.11,0.25 -0.11,0.24 -0.12,0.24 -0.12,0.24 -0.12,0.24 -0.12,0.24 -0.12,0.24 -0.13,0.24 -0.13,0.24 -0.13,0.23 -0.13,0.24 -0.13,0.24 -0.14,0.23 -0.14,0.24 -0.14,0.23 -0.14,0.23 -0.14,0.24 -0.14,0.23 -0.15,0.23 -0.15,0.23 -0.15,0.23 -0.15,0.23 -0.16,0.22 -0.15,0.23 -0.16,0.23 -0.16,0.22 -0.16,0.23 -0.16,0.22 -0.17,0.23 -0.16,0.22 -0.17,0.22 -0.17,0.22 -0.17,0.22 -0.18,0.22 -0.17,0.22 -0.18,0.21 -0.18,0.22 -0.18,0.22 -0.18,0.21 -0.18,0.21 -0.19,0.22 -0.19,0.21 -0.18,0.21 -0.2,0.21 -0.19,0.21 -0.19,0.21 -0.2,0.2 -0.19,0.21 -0.2,0.2 -0.2,0.21 -0.2,0.2 -0.21,0.2 -0.2,0.2 -0.21,0.2 -0.21,0.2 -0.21,0.2 -0.21,0.2 -0.21,0.19 -0.22,0.2 -0.21,0.19 -0.22,0.2 -0.22,0.19 -0.22,0.19 -0.22,0.19 -0.23,0.18 -0.22,0.19 -0.23,0.19 -0.23,0.18 -0.23,0.19 -0.23,0.18 -0.23,0.18 -0.23,0.18 -0.24,0.18 -0.24,0.18 -0.23,0.17 -0.24,0.18 -0.25,0.17 -0.24,0.18 -0.24,0.17 -0.25,0.17 -0.24,0.17 -0.25,0.17 -0.25,0.16 -0.25,0.17 -0.25,0.16 -0.26,0.17 -0.25,0.16 -0.26,0.16 -0.25,0.16 -0.26,0.16 -0.26,0.15 -0.26,0.16 -0.26,0.15 -0.27,0.16 -0.26,0.15 -0.27,0.15 -0.26,0.15 -0.27,0.14 -0.27,0.15 -0.27,0.15 -0.27,0.14 -0.27,0.14 -0.28,0.14 -0.27,0.14 -0.28,0.14 -0.27,0.14 -0.28,0.13 -0.28,0.14 -0.28,0.13 -0.28,0.13 -0.29,0.13 -0.28,0.13 -0.28,0.12 -0.29,0.13 -0.28,0.12 -0.29,0.13 -0.29,0.12 -0.29,0.12 -0.29,0.12 -0.29,0.11 -0.29,0.12 -0.3,0.11 -0.29,0.11 -0.29,0.12 -0.3,0.11 -0.3,0.1 -0.29,0.11 -0.3,0.11 -0.3,0.1 -0.3,0.1 -0.3,0.1 -0.3,0.1 -0.3,0.1 -0.31,0.09 -0.3,0.1 -0.31,0.09 -0.3,0.09 -0.31,0.09 -0.3,0.09 -0.31,0.09 -0.31,0.08 -0.31,0.09 -0.31,0.08 -0.31,0.08 -0.31,0.08 -0.31,0.08 -0.31,0.07 -0.31,0.08 -0.32,0.07 -0.31,0.07 -0.31,0.07 -0.32,0.07 -0.31,0.07 -0.32,0.06 -0.31,0.07 -0.32,0.06 -0.32,0.06 -0.32,0.06 -0.31,0.06 -0.32,0.05 -0.32,0.06 -0.32,0.05 -0.32,0.05 -0.32,0.05 -0.32,0.05 -0.32,0.04 -0.33,0.05 -0.32,0.04 -0.32,0.04 -0.32,0.04 -0.32,0.04 -0.33,0.04 -0.32,0.03 -0.32,0.03 -0.33,0.04 -0.32,0.03 -0.33,0.02 -0.32,0.03 -0.33,0.03 -0.32,0.02 -0.33,0.02 -0.32,0.02 -0.33,0.02 -0.32,0.02 -0.33,0.01 -0.32,0.02 -0.33,0.01 -0.33,0.01 -0.32,0.01 -0.33,0.01 h -0.32 l -0.33,0.01 h -0.33 -0.32 v -82.13 h -20.73 v 0 -82.12 0 z m 24.88,98.55 h 20.73 0.23 0.24 0.23 l 0.24,0.01 h 0.23 l 0.24,0.01 h 0.23 l 0.24,0.01 0.23,0.01 0.24,0.01 0.23,0.01 0.23,0.01 0.24,0.01 0.23,0.01 0.24,0.02 0.23,0.01 0.23,0.02 0.24,0.02 0.23,0.01 0.23,0.02 0.24,0.02 0.23,0.02 0.23,0.03 0.23,0.02 0.24,0.02 0.23,0.03 0.23,0.02 0.23,0.03 0.23,0.03 0.23,0.03 0.23,0.03 0.23,0.03 0.23,0.03 0.23,0.03 0.23,0.03 0.23,0.04 0.23,0.03 0.23,0.04 0.23,0.04 0.23,0.04 0.22,0.03 0.23,0.04 0.23,0.05 0.22,0.04 0.23,0.04 0.22,0.04 0.23,0.05 0.22,0.04 0.23,0.05 0.22,0.05 0.22,0.05 0.23,0.05 0.22,0.05 0.22,0.05 0.22,0.05 0.22,0.05 0.22,0.06 0.22,0.05 0.22,0.06 0.22,0.05 0.22,0.06 0.22,0.06 0.21,0.06 0.22,0.06 0.22,0.06 0.21,0.06 0.22,0.07 0.21,0.06 0.21,0.07 0.22,0.06 0.21,0.07 0.21,0.07 0.21,0.06 0.21,0.07 0.21,0.07 0.21,0.07 0.21,0.08 0.21,0.07 0.2,0.07 0.21,0.08 0.2,0.07 0.21,0.08 0.2,0.08 0.21,0.07 0.2,0.08 0.2,0.08 0.2,0.08 0.2,0.08 0.2,0.09 0.2,0.08 0.2,0.08 0.19,0.09 0.2,0.08 0.19,0.09 0.2,0.08 0.19,0.09 0.2,0.09 0.19,0.09 0.19,0.09 0.19,0.09 0.19,0.09 0.19,0.1 0.19,0.09 0.18,0.09 0.19,0.1 0.18,0.09 0.19,0.1 0.18,0.1 0.18,0.1 0.18,0.09 0.18,0.1 0.18,0.1 0.18,0.1 0.18,0.11 0.18,0.1 0.17,0.1 0.18,0.11 0.17,0.1 0.17,0.11 0.17,0.1 0.17,0.11 0.17,0.11 0.17,0.1 0.17,0.11 0.17,0.11 0.16,0.11 0.17,0.11 0.16,0.11 0.16,0.12 0.16,0.11 0.16,0.11 0.16,0.12 0.16,0.11 0.16,0.12 0.15,0.11 0.16,0.12 0.15,0.12 0.15,0.12 0.15,0.12 0.15,0.11 0.15,0.12 0.15,0.13 0.15,0.12 0.14,0.12 0.15,0.12 0.14,0.12 0.14,0.13 0.14,0.12 0.14,0.13 0.14,0.12 0.14,0.13 0.13,0.12 0.14,0.13 0.13,0.13 0.13,0.13 0.13,0.13 0.13,0.13 0.13,0.12 0.13,0.14 0.13,0.13 0.12,0.13 0.12,0.13 0.13,0.13 0.12,0.13 0.12,0.14 0.12,0.13 0.11,0.14 0.12,0.13 0.11,0.14 0.12,0.13 0.11,0.14 0.11,0.14 0.11,0.13 0.11,0.14 0.1,0.14 0.11,0.14 0.1,0.14 0.11,0.14 0.1,0.14 0.1,0.14 0.1,0.14 0.1,0.14 0.09,0.14 0.1,0.14 0.09,0.14 0.09,0.15 0.09,0.14 0.09,0.14 0.09,0.15 0.09,0.14 0.08,0.15 0.09,0.14 0.08,0.15 0.08,0.14 0.08,0.15 0.08,0.14 0.07,0.15 0.08,0.15 0.07,0.14 0.08,0.15 0.07,0.15 0.07,0.15 0.07,0.15 0.06,0.14 0.07,0.15 0.06,0.15 0.07,0.15 0.06,0.15 0.06,0.15 0.06,0.15 0.05,0.15 0.06,0.15 0.05,0.15 0.06,0.16 0.05,0.15 0.05,0.15 0.05,0.15 0.04,0.15 0.05,0.15 0.04,0.16 0.05,0.15 0.04,0.15 0.04,0.15 0.03,0.16 0.04,0.15 0.04,0.15 0.03,0.16 0.03,0.15 0.03,0.15 0.03,0.16 0.03,0.15 0.03,0.16 0.02,0.15 0.03,0.16 0.02,0.15 0.02,0.15 0.02,0.16 0.02,0.15 0.01,0.16 0.02,0.15 0.01,0.16 0.01,0.15 0.01,0.16 0.01,0.15 0.01,0.16 0.01,0.15 v 0.16 0.15 0.16 0.15 0.16 0.15 0.16 l -0.01,0.15 -0.01,0.16 -0.01,0.15 -0.01,0.16 -0.01,0.15 -0.01,0.16 -0.02,0.15 -0.01,0.16 -0.02,0.15 -0.02,0.16 -0.02,0.15 -0.02,0.16 -0.03,0.15 -0.02,0.15 -0.03,0.16 -0.03,0.15 -0.03,0.16 -0.03,0.15 -0.03,0.15 -0.03,0.16 -0.04,0.15 -0.04,0.15 -0.03,0.16 -0.04,0.15 -0.04,0.15 -0.05,0.16 -0.04,0.15 -0.05,0.15 -0.04,0.15 -0.05,0.15 -0.05,0.16 -0.05,0.15 -0.06,0.15 -0.05,0.15 -0.06,0.15 -0.05,0.15 -0.06,0.15 -0.06,0.15 -0.06,0.15 -0.07,0.15 -0.06,0.15 -0.07,0.15 -0.06,0.15 -0.07,0.14 -0.07,0.15 -0.07,0.15 -0.08,0.15 -0.07,0.15 -0.08,0.14 -0.07,0.15 -0.08,0.14 -0.08,0.15 -0.08,0.15 -0.08,0.14 -0.09,0.15 -0.08,0.14 -0.09,0.15 -0.09,0.14 -0.09,0.14 -0.09,0.15 -0.09,0.14 -0.09,0.14 -0.1,0.14 -0.09,0.14 -0.1,0.15 -0.1,0.14 -0.1,0.14 -0.1,0.14 -0.11,0.14 -0.1,0.13 -0.11,0.14 -0.1,0.14 -0.11,0.14 -0.11,0.14 -0.11,0.13 -0.11,0.14 -0.12,0.14 -0.11,0.13 -0.12,0.14 -0.11,0.13 -0.12,0.13 -0.12,0.14 -0.12,0.13 -0.13,0.13 -0.12,0.13 -0.12,0.14 -0.13,0.13 -0.13,0.13 -0.13,0.13 -0.13,0.13 -0.13,0.12 -0.13,0.13 -0.13,0.13 -0.14,0.13 -0.13,0.12 -0.14,0.13 -0.14,0.13 -0.14,0.12 -0.14,0.12 -0.14,0.13 -0.14,0.12 -0.15,0.12 -0.14,0.13 -0.15,0.12 -0.15,0.12 -0.15,0.12 -0.15,0.12 -0.15,0.12 -0.15,0.11 -0.15,0.12 -0.16,0.12 -0.15,0.11 -0.16,0.12 -0.16,0.11 -0.16,0.12 -0.16,0.11 -0.16,0.12 -0.16,0.11 -0.16,0.11 -0.17,0.11 -0.16,0.11 -0.17,0.11 -0.17,0.11 -0.17,0.11 -0.17,0.1 -0.17,0.11 -0.17,0.11 -0.17,0.1 -0.17,0.11 -0.18,0.1 -0.17,0.1 -0.18,0.11 -0.18,0.1 -0.18,0.1 -0.18,0.1 -0.18,0.1 -0.18,0.1 -0.18,0.09 -0.18,0.1 -0.19,0.1 -0.18,0.09 -0.19,0.1 -0.18,0.09 -0.19,0.1 -0.19,0.09 -0.19,0.09 -0.19,0.09 -0.19,0.09 -0.19,0.09 -0.2,0.09 -0.19,0.09 -0.2,0.08 -0.19,0.09 -0.2,0.09 -0.19,0.08 -0.2,0.08 -0.2,0.09 -0.2,0.08 -0.2,0.08 -0.2,0.08 -0.2,0.08 -0.2,0.08 -0.21,0.08 -0.2,0.07 -0.21,0.08 -0.2,0.07 -0.21,0.08 -0.2,0.07 -0.21,0.08 -0.21,0.07 -0.21,0.07 -0.21,0.07 -0.21,0.07 -0.21,0.07 -0.21,0.06 -0.21,0.07 -0.22,0.07 -0.21,0.06 -0.21,0.06 -0.22,0.07 -0.21,0.06 -0.22,0.06 -0.22,0.06 -0.21,0.06 -0.22,0.06 -0.22,0.06 -0.22,0.05 -0.22,0.06 -0.22,0.05 -0.22,0.06 -0.22,0.05 -0.22,0.05 -0.22,0.06 -0.22,0.05 -0.23,0.04 -0.22,0.05 -0.22,0.05 -0.23,0.05 -0.22,0.04 -0.23,0.05 -0.22,0.04 -0.23,0.04 -0.22,0.05 -0.23,0.04 -0.23,0.04 -0.22,0.04 -0.23,0.04 -0.23,0.03 -0.23,0.04 -0.23,0.03 -0.23,0.04 -0.23,0.03 -0.23,0.03 -0.23,0.04 -0.23,0.03 -0.23,0.03 -0.23,0.02 -0.23,0.03 -0.23,0.03 -0.23,0.02 -0.23,0.03 -0.24,0.02 -0.23,0.03 -0.23,0.02 -0.23,0.02 -0.24,0.02 -0.23,0.02 -0.23,0.02 -24.95,-32.7 z"
             style="fill:#333333;fill-opacity:1;fill-rule:evenodd;stroke:none"
             id="path30046" />
          <path
             d="m 389.16,133.46 h 20.73 v 0 -21.9 0 h -10.36 v 0 h -0.37 -0.36 -0.37 l -0.36,-0.01 h -0.37 l -0.36,-0.01 -0.37,-0.01 -0.37,-0.01 -0.36,-0.01 -0.36,-0.01 -0.37,-0.02 -0.36,-0.01 -0.37,-0.02 -0.36,-0.02 -0.37,-0.01 -0.36,-0.02 -0.36,-0.03 -0.37,-0.02 -0.36,-0.02 -0.36,-0.03 -0.36,-0.02 -0.37,-0.03 -0.36,-0.03 -0.36,-0.03 -0.36,-0.03 -0.36,-0.04 -0.36,-0.03 -0.36,-0.04 -0.36,-0.03 -0.36,-0.04 -0.36,-0.04 -0.36,-0.04 -0.36,-0.04 -0.35,-0.05 -0.36,-0.04 -0.36,-0.05 -0.35,-0.05 -0.36,-0.04 -0.35,-0.05 -0.36,-0.05 -0.35,-0.06 -0.35,-0.05 -0.36,-0.05 -0.35,-0.06 -0.35,-0.06 -0.35,-0.06 -0.35,-0.06 -0.35,-0.06 -0.35,-0.06 -0.35,-0.06 -0.34,-0.07 -0.35,-0.06 -0.34,-0.07 -0.35,-0.07 -0.34,-0.07 -0.35,-0.07 -0.34,-0.07 -0.34,-0.07 -0.34,-0.08 -0.34,-0.07 -0.34,-0.08 -0.34,-0.08 -0.34,-0.08 -0.33,-0.08 -0.34,-0.08 -0.33,-0.08 -0.34,-0.09 -0.33,-0.08 -0.33,-0.09 -0.33,-0.09 -0.33,-0.09 -0.33,-0.09 -0.33,-0.09 -0.33,-0.09 -0.32,-0.09 -0.33,-0.1 -0.32,-0.09 -0.33,-0.1 -0.32,-0.1 -0.32,-0.1 -0.32,-0.1 -0.32,-0.1 -0.31,-0.1 -0.32,-0.11 -0.32,-0.1 -0.31,-0.11 -0.31,-0.1 -0.31,-0.11 -0.31,-0.11 -0.31,-0.11 -0.31,-0.11 -0.31,-0.12 -0.3,-0.11 -0.31,-0.11 -0.3,-0.12 -0.3,-0.12 -0.3,-0.12 -0.3,-0.11 -0.3,-0.12 -0.29,-0.13 -0.3,-0.12 -0.29,-0.12 -0.29,-0.13 -0.29,-0.12 -0.29,-0.13 -0.29,-0.13 -0.29,-0.12 -0.28,-0.13 -0.28,-0.13 -0.29,-0.14 -0.28,-0.13 -0.28,-0.13 -0.27,-0.14 -0.28,-0.13 -0.27,-0.14 -0.28,-0.14 -0.27,-0.13 -0.27,-0.14 -0.27,-0.14 -0.26,-0.15 -0.27,-0.14 -0.26,-0.14 -0.26,-0.15 -0.26,-0.14 -0.26,-0.15 -0.26,-0.14 -0.26,-0.15 -0.25,-0.15 -0.25,-0.15 -0.25,-0.15 -0.25,-0.15 -0.25,-0.15 -0.24,-0.16 -0.25,-0.15 -0.24,-0.16 -0.24,-0.15 -0.24,-0.16 -0.24,-0.16 -0.23,-0.15 -0.23,-0.16 -0.24,-0.16 -0.23,-0.16 -0.22,-0.17 -0.23,-0.16 -0.22,-0.16 -0.23,-0.17 -0.22,-0.16 -0.22,-0.17 -0.21,-0.16 -0.22,-0.17 -0.21,-0.17 -0.21,-0.17 -0.21,-0.17 -0.21,-0.17 -0.21,-0.17 -0.2,-0.17 -0.2,-0.17 -0.2,-0.17 -0.2,-0.18 -0.2,-0.17 -0.19,-0.18 -0.19,-0.17 -0.19,-0.18 -0.19,-0.18 -0.19,-0.18 -0.18,-0.17 -0.19,-0.18 -0.18,-0.18 -0.17,-0.18 -0.18,-0.18 -0.17,-0.19 -0.18,-0.18 -0.17,-0.18 -0.17,-0.19 -0.16,-0.18 -0.17,-0.18 -0.16,-0.19 -0.16,-0.19 -0.16,-0.18 -0.15,-0.19 -0.16,-0.19 -0.15,-0.18 -0.15,-0.19 -0.14,-0.19 -0.15,-0.19 -0.14,-0.19 -0.14,-0.19 -0.14,-0.19 -0.14,-0.2 -0.14,-0.19 -0.13,-0.19 -0.13,-0.19 -0.13,-0.2 -0.12,-0.19 -0.13,-0.2 -0.12,-0.19 -0.12,-0.2 -0.12,-0.19 -0.11,-0.2 -0.11,-0.2 -0.12,-0.19 -0.1,-0.2 -0.11,-0.2 -0.11,-0.2 -0.1,-0.2 -0.1,-0.19 -0.1,-0.2 -0.09,-0.2 -0.09,-0.2 -0.1,-0.2 -0.08,-0.2 -0.09,-0.2 -0.09,-0.21 -0.08,-0.2 -0.08,-0.2 -0.07,-0.2 -0.08,-0.2 -0.07,-0.21 -0.07,-0.2 -0.07,-0.2 -0.07,-0.21 -0.06,-0.2 -0.06,-0.2 -0.06,-0.21 -0.06,-0.2 -0.06,-0.21 -0.05,-0.2 -0.05,-0.21 -0.05,-0.2 -0.04,-0.21 -0.05,-0.2 -0.04,-0.21 -0.04,-0.2 -0.03,-0.21 -0.04,-0.2 -0.03,-0.21 -0.03,-0.21 -0.03,-0.2 -0.02,-0.21 -0.03,-0.21 -0.02,-0.2 -0.02,-0.21 -0.01,-0.2 -0.02,-0.21 -0.01,-0.21 -0.01,-0.2 v -0.21 l -0.01,-0.21 v -0.21 -0.2 -0.21 l 0.01,-0.21 v -0.2 l 0.01,-0.21 0.01,-0.21 0.02,-0.2 0.01,-0.21 0.02,-0.21 0.02,-0.2 0.03,-0.21 0.02,-0.21 0.03,-0.2 0.03,-0.21 0.03,-0.2 0.04,-0.21 0.03,-0.21 0.04,-0.2 0.04,-0.21 0.05,-0.2 0.04,-0.21 0.05,-0.2 0.05,-0.21 0.05,-0.2 0.06,-0.21 0.06,-0.2 0.06,-0.2 0.06,-0.21 0.06,-0.2 0.07,-0.2 0.07,-0.21 0.07,-0.2 0.07,-0.2 0.08,-0.21 0.07,-0.2 0.08,-0.2 0.08,-0.2 0.09,-0.2 0.09,-0.2 0.08,-0.2 0.1,-0.2 0.09,-0.2 0.09,-0.2 0.1,-0.2 0.1,-0.2 0.1,-0.2 0.11,-0.2 0.11,-0.2 0.1,-0.19 0.12,-0.2 0.11,-0.2 0.11,-0.19 0.12,-0.2 0.12,-0.2 0.12,-0.19 0.13,-0.2 0.12,-0.19 0.13,-0.19 0.13,-0.2 0.13,-0.19 0.14,-0.19 0.14,-0.19 0.14,-0.19 0.14,-0.19 0.14,-0.19 0.15,-0.19 0.14,-0.19 0.15,-0.19 0.15,-0.19 0.16,-0.19 0.15,-0.19 0.16,-0.18 0.16,-0.19 0.16,-0.18 0.17,-0.19 0.16,-0.18 0.17,-0.19 0.17,-0.18 0.18,-0.18 0.17,-0.18 0.18,-0.18 0.17,-0.18 0.18,-0.18 0.19,-0.18 0.18,-0.18 0.19,-0.18 0.19,-0.18 0.19,-0.17 0.19,-0.18 0.19,-0.18 0.2,-0.17 0.2,-0.17 0.2,-0.18 0.2,-0.17 0.2,-0.17 0.21,-0.17 0.21,-0.17 0.21,-0.17 0.21,-0.17 0.21,-0.17 0.22,-0.16 0.21,-0.17 0.22,-0.17 0.22,-0.16 0.23,-0.17 0.22,-0.16 0.23,-0.16 0.22,-0.16 0.23,-0.16 0.24,-0.16 0.23,-0.16 0.23,-0.16 0.24,-0.16 0.24,-0.16 0.24,-0.15 0.24,-0.16 0.25,-0.15 0.24,-0.15 0.25,-0.16 0.25,-0.15 0.25,-0.15 0.25,-0.15 0.25,-0.15 0.26,-0.14 0.26,-0.15 0.26,-0.15 0.26,-0.14 0.26,-0.15 0.26,-0.14 0.27,-0.14 0.26,-0.14 0.27,-0.14 0.27,-0.14 0.27,-0.14 0.28,-0.14 0.27,-0.14 0.28,-0.13 0.27,-0.14 0.28,-0.13 0.28,-0.13 0.29,-0.13 0.28,-0.13 0.28,-0.13 0.29,-0.13 0.29,-0.13 0.29,-0.13 0.29,-0.12 0.29,-0.13 0.29,-0.12 0.3,-0.12 0.29,-0.12 0.3,-0.12 0.3,-0.12 0.3,-0.12 0.3,-0.12 0.3,-0.11 0.31,-0.12 0.3,-0.11 0.31,-0.11 0.31,-0.12 0.31,-0.11 0.31,-0.11 0.31,-0.1 0.31,-0.11 0.31,-0.11 0.32,-0.1 0.32,-0.11 0.31,-0.1 0.32,-0.1 0.32,-0.1 0.32,-0.1 0.32,-0.1 0.33,-0.09 0.32,-0.1 0.33,-0.09 0.32,-0.1 0.33,-0.09 0.33,-0.09 0.33,-0.09 0.33,-0.09 0.33,-0.09 0.33,-0.08 0.33,-0.09 0.34,-0.08 0.33,-0.09 0.34,-0.08 0.33,-0.08 0.34,-0.08 0.34,-0.08 0.34,-0.07 0.34,-0.08 0.34,-0.07 0.34,-0.08 0.34,-0.07 0.35,-0.07 0.34,-0.07 0.35,-0.07 0.34,-0.06 0.35,-0.07 0.34,-0.07 0.35,-0.06 0.35,-0.06 0.35,-0.06 0.35,-0.06 0.35,-0.06 0.35,-0.06 0.35,-0.05 0.36,-0.06 0.35,-0.05 0.35,-0.05 0.36,-0.05 0.35,-0.05 0.36,-0.05 0.35,-0.05 0.36,-0.05 0.36,-0.04 0.35,-0.04 0.36,-0.04 0.36,-0.05 0.36,-0.04 0.36,-0.03 0.36,-0.04 0.36,-0.04 0.36,-0.03 0.36,-0.03 0.36,-0.04 0.36,-0.03 0.36,-0.02 0.37,-0.03 0.36,-0.03 0.36,-0.02 0.36,-0.03 0.37,-0.02 0.36,-0.02 0.36,-0.02 0.37,-0.02 0.36,-0.02 0.37,-0.02 0.36,-0.01 0.37,-0.01 0.36,-0.02 0.36,-0.01 0.37,-0.01 0.37,-0.01 h 0.36 l 0.37,-0.01 h 0.36 l 0.37,-0.01 h 0.36 0.37 l -10.37,-21.9 h 20.73 v 0 21.9 0 h -10.36 l -10.37,-21.9 h -0.52 -0.52 l -0.52,0.01 -0.53,0.01 -0.52,0.01 -0.52,0.01 -0.52,0.01 -0.52,0.02 -0.52,0.02 -0.53,0.02 -0.52,0.02 -0.52,0.03 -0.52,0.02 -0.52,0.03 -0.52,0.03 -0.52,0.04 -0.52,0.03 -0.52,0.04 -0.51,0.04 -0.52,0.04 -0.52,0.05 -0.52,0.04 -0.51,0.05 -0.52,0.05 -0.52,0.06 -0.51,0.05 -0.52,0.06 -0.51,0.06 -0.51,0.06 -0.52,0.06 -0.51,0.07 -0.51,0.07 -0.51,0.07 -0.51,0.07 -0.51,0.07 -0.51,0.08 -0.51,0.08 -0.51,0.08 -0.51,0.08 -0.5,0.09 -0.51,0.08 -0.5,0.09 -0.5,0.09 -0.51,0.1 -0.5,0.09 -0.5,0.1 -0.5,0.1 -0.5,0.1 -0.5,0.1 -0.49,0.11 -0.5,0.11 -0.49,0.11 -0.5,0.11 -0.49,0.11 -0.49,0.12 -0.49,0.12 -0.49,0.12 -0.49,0.12 -0.49,0.12 -0.48,0.13 -0.49,0.13 -0.48,0.13 -0.48,0.13 -0.49,0.13 -0.47,0.14 -0.48,0.14 -0.48,0.14 -0.48,0.14 -0.47,0.15 -0.47,0.14 -0.47,0.15 -0.47,0.15 -0.47,0.15 -0.47,0.16 -0.47,0.15 -0.46,0.16 -0.46,0.16 -0.46,0.16 -0.46,0.16 -0.46,0.17 -0.46,0.17 -0.45,0.17 -0.46,0.17 -0.45,0.17 -0.45,0.17 -0.45,0.18 -0.44,0.18 -0.45,0.18 -0.44,0.18 -0.44,0.19 -0.44,0.18 -0.44,0.19 -0.44,0.19 -0.43,0.19 -0.43,0.19 -0.43,0.2 -0.43,0.2 -0.43,0.19 -0.42,0.21 -0.43,0.2 -0.42,0.2 -0.42,0.21 -0.41,0.2 -0.42,0.21 -0.41,0.21 -0.41,0.22 -0.41,0.21 -0.41,0.22 -0.4,0.21 -0.41,0.22 -0.4,0.22 -0.4,0.23 -0.39,0.22 -0.4,0.23 -0.39,0.22 -0.39,0.23 -0.39,0.23 -0.38,0.24 -0.39,0.23 -0.38,0.24 -0.38,0.23 -0.37,0.24 -0.38,0.24 -0.37,0.24 -0.37,0.25 -0.37,0.24 -0.36,0.25 -0.36,0.25 -0.36,0.25 -0.36,0.25 -0.36,0.25 -0.35,0.25 -0.35,0.26 -0.35,0.26 -0.35,0.25 -0.34,0.26 -0.34,0.26 -0.34,0.27 -0.33,0.26 -0.34,0.27 -0.33,0.26 -0.33,0.27 -0.32,0.27 -0.33,0.27 -0.32,0.27 -0.31,0.28 -0.32,0.27 -0.31,0.28 -0.31,0.27 -0.31,0.28 -0.3,0.28 -0.31,0.28 -0.3,0.29 -0.29,0.28 -0.3,0.29 -0.29,0.28 -0.29,0.29 -0.28,0.29 -0.28,0.29 -0.28,0.29 -0.28,0.29 -0.28,0.29 -0.27,0.3 -0.27,0.29 -0.26,0.3 -0.27,0.3 -0.26,0.3 -0.26,0.29 -0.25,0.31 -0.25,0.3 -0.25,0.3 -0.25,0.3 -0.24,0.31 -0.24,0.31 -0.24,0.3 -0.23,0.31 -0.24,0.31 -0.22,0.31 -0.23,0.31 -0.22,0.31 -0.22,0.31 -0.22,0.32 -0.21,0.31 -0.21,0.32 -0.21,0.31 -0.21,0.32 -0.2,0.32 -0.2,0.32 -0.19,0.32 -0.19,0.32 -0.19,0.32 -0.19,0.32 -0.18,0.32 -0.18,0.33 -0.18,0.32 -0.17,0.33 -0.18,0.32 -0.16,0.33 -0.17,0.33 -0.16,0.32 -0.16,0.33 -0.15,0.33 -0.16,0.33 -0.15,0.33 -0.14,0.33 50.08,66.28 0.49,0.12 0.49,0.12 0.49,0.12 0.49,0.12 0.49,0.11 0.5,0.11 0.49,0.11 0.5,0.11 0.49,0.11 0.5,0.1 0.5,0.1 0.5,0.1 0.5,0.1 0.5,0.1 0.51,0.09 0.5,0.09 0.5,0.09 0.51,0.09 0.5,0.08 0.51,0.08 0.51,0.08 0.51,0.08 0.51,0.08 0.51,0.07 0.51,0.08 0.51,0.07 0.51,0.06 0.51,0.07 0.52,0.06 0.51,0.06 0.51,0.06 0.52,0.06 0.51,0.06 0.52,0.05 0.52,0.05 0.51,0.05 0.52,0.04 0.52,0.05 0.52,0.04 0.51,0.04 0.52,0.04 0.52,0.04 0.52,0.03 0.52,0.03 0.52,0.03 0.52,0.03 0.52,0.02 0.52,0.02 0.53,0.02 0.52,0.02 0.52,0.02 0.52,0.01 0.52,0.02 0.52,0.01 h 0.53 l 0.52,0.01 h 0.52 z"
             style="fill:#333333;fill-opacity:1;fill-rule:nonzero;stroke:none"
             id="path30048" />
        </g>
      </g>
      <g
         id="g30050" />
      <g
         id="g30052" />
      <g
         id="g30054" />
      <g
         id="g30056" />
      <g
         id="g30058" />
      <g
         id="g30060" />
      <g
         id="g30062" />
      <g
         id="g30064" />
      <g
         id="g30066" />
      <g
         id="g30068" />
      <g
         id="g30070" />
      <g
         id="g30072" />
      <g
         id="g30074" />
      <g
         id="g30076" />
      <g
         id="g30078" />
      <g
         id="g30080" />
      <g
         id="g30082" />
      <g
         id="g30084" />
      <g
         id="g30086" />
      <g
         id="g30088" />
      <g
         id="g30090" />
      <g
         id="g30092" />
      <g
         id="g30094" />
      <g
         id="g30096" />
      <g
         id="g30098" />
      <g
         id="g30100" />
      <g
         id="g30102" />
      <g
         id="g30104" />
      <g
         id="g30106" />
      <g
         id="g30108" />
      <g
         id="g30110" />
      <g
         id="g30112" />
      <g
         id="g30114" />
      <g
         id="g30116" />
      <g
         id="g30118" />
      <g
         id="g30120" />
      <g
         id="g30122" />
      <g
         id="g30124" />
      <g
         id="g30126" />
      <g
         id="g30128" />
      <g
         id="g30130" />
      <g
         id="g30132" />
      <g
         id="g30134" />
      <g
         id="g30136" />
    </g>
  </g>
</svg>
